<svg width="98" height="50" viewBox="0 0 98 50" fill="none" xmlns="http://www.w3.org/2000/svg">
<path d="M91.1596 49.0383H6.71863C3.15463 49.0383 0.265625 46.1493 0.265625 42.5853V6.71032C0.265625 3.14632 3.15463 0.257324 6.71863 0.257324H91.1596C94.7236 0.257324 97.6126 3.14632 97.6126 6.71032V42.5843C97.6126 46.1493 94.7236 49.0383 91.1596 49.0383Z" fill="white"/>
<path d="M91.1597 49.0383C91.1407 48.9713 92.1957 49.1483 93.8997 48.3633C94.7347 47.9663 95.6927 47.2643 96.4547 46.1383C96.8257 45.5723 97.1357 44.9033 97.3227 44.1493C97.5237 43.3933 97.5257 42.5643 97.5127 41.6713C97.4927 34.5403 97.4647 24.2523 97.4297 11.5423C97.4257 9.9523 97.4227 8.3253 97.4187 6.6613C97.4177 5.0443 96.7377 3.4013 95.5207 2.2343C94.3137 1.0493 92.6017 0.398297 90.8317 0.466297C89.0277 0.468297 87.1897 0.471297 85.3197 0.473297C77.8397 0.481297 69.8487 0.489297 61.4407 0.497297C44.6207 0.503297 26.1317 0.510297 6.72467 0.518297C4.37867 0.496297 2.13167 1.9283 1.14767 4.0183C0.615669 5.0613 0.492668 6.1973 0.524668 7.3883C0.524668 8.5783 0.524661 9.7643 0.523661 10.9463C0.522661 15.6733 0.520663 20.3303 0.519663 24.9073C0.517663 29.4833 0.515667 33.9793 0.513667 38.3813C0.512667 39.4823 0.512668 40.5773 0.511668 41.6653C0.508668 42.2133 0.504662 42.7543 0.549662 43.2663C0.622662 43.7803 0.716668 44.2963 0.914668 44.7763C1.62867 46.7303 3.38267 48.2133 5.36167 48.6453C6.33867 48.8843 7.39067 48.7733 8.43167 48.8013C9.46967 48.8023 10.5007 48.8033 11.5257 48.8043C13.5747 48.8063 15.5957 48.8083 17.5877 48.8103C21.5717 48.8153 25.4397 48.8193 29.1797 48.8233C36.6577 48.8343 43.6247 48.8453 49.9857 48.8553C62.6957 48.8903 72.9827 48.9183 80.1127 48.9383C83.6577 48.9593 86.4137 48.9763 88.3037 48.9873C89.2287 48.9983 89.9377 49.0073 90.4337 49.0133C90.9137 49.0203 91.1597 49.0383 91.1597 49.0383C91.1597 49.0383 90.9137 49.0563 90.4337 49.0653C89.9377 49.0713 89.2287 49.0803 88.3037 49.0913C86.4147 49.1023 83.6577 49.1193 80.1127 49.1403C72.9827 49.1603 62.6957 49.1883 49.9857 49.2233C43.6247 49.2333 36.6577 49.2433 29.1797 49.2553C25.4397 49.2593 21.5717 49.2643 17.5877 49.2683C15.5957 49.2703 13.5747 49.2723 11.5257 49.2743C10.5017 49.2753 9.46967 49.2763 8.43167 49.2773C7.40567 49.2493 6.33967 49.3703 5.25767 49.1153C3.12267 48.6533 1.23267 47.0593 0.457667 44.9513C0.244667 44.4333 0.139671 43.8773 0.0616709 43.3223C0.0116709 42.7553 0.0166716 42.2093 0.0186716 41.6683C0.0176716 40.5793 0.0176727 39.4843 0.0166727 38.3843C0.0146727 33.9813 0.012676 29.4863 0.010676 24.9103C0.00967603 20.3343 0.00766296 15.6763 0.00666296 10.9493C0.00666296 9.7673 0.00667114 8.5813 0.00567114 7.3913C-0.0313289 6.2143 0.103667 4.9013 0.679667 3.7943C1.74467 1.5293 4.18367 -0.0247027 6.72467 0.000297297C26.1317 0.0072973 44.6207 0.0142972 61.4407 0.0212972C69.8487 0.0292972 77.8397 0.0382974 85.3197 0.0452974C87.1897 0.0482974 89.0267 0.0502973 90.8317 0.0522973C92.6747 -0.0167027 94.5307 0.686296 95.8007 1.9503C97.0917 3.1953 97.8087 4.9473 97.8037 6.6623C97.8017 8.3273 97.7997 9.9553 97.7977 11.5463C97.7627 24.2563 97.7347 34.5443 97.7147 41.6753C97.7207 42.5573 97.7097 43.4243 97.4957 44.1973C97.2957 44.9713 96.9687 45.6543 96.5827 46.2293C95.7887 47.3743 94.8007 48.0753 93.9447 48.4633C93.0847 48.8603 92.3637 48.9733 91.8877 49.0263C91.4057 49.0503 91.1597 49.0383 91.1597 49.0383Z" fill="#DF3A4C"/>
<path d="M90.9706 44.7043H6.90662C5.74162 44.7043 4.79761 43.7603 4.79761 42.5953V6.70031C4.79761 5.53531 5.74162 4.59131 6.90662 4.59131H90.9706C92.1356 4.59131 93.0796 5.53531 93.0796 6.70031V42.5953C93.0796 43.7603 92.1356 44.7043 90.9706 44.7043Z" fill="#DF3A4C"/>
<path d="M26.7027 30.5883V33.4193H15.1567V18.1763H26.4247V21.0073H18.5857V24.3173H25.5087V27.0613H18.5857V30.5883H26.7027Z" fill="white"/>
<path d="M38.6918 33.4183L35.0908 28.1273L31.5558 33.4183H27.5928L33.1098 25.6673L27.8698 18.1763H31.7898L35.2178 23.1193L38.5838 18.1763H42.3118L37.1148 25.5363L42.6748 33.4183H38.6918Z" fill="white"/>
<path d="M44.0327 18.1763H47.4837V33.4183H44.0327V18.1763Z" fill="white"/>
<path d="M54.1067 21.0513H49.3357V18.1763H62.3297V21.0513H57.5577V33.4183H54.1067V21.0513Z" fill="white"/>
<path d="M68.8467 26.8192V22.7902H79.9257L74.3857 17.2512H80.4287L87.9827 24.8042L80.3027 32.4842H74.6377L79.8417 27.0702L68.8467 26.8192Z" fill="white"/>
</svg>
