<svg width="211" height="211" viewBox="0 0 211 211" fill="none" xmlns="http://www.w3.org/2000/svg">
<mask id="mask0_506_14" style="mask-type:luminance" maskUnits="userSpaceOnUse" x="0" y="0" width="211" height="211">
<path d="M210.755 0H0V210.755H210.755V0Z" fill="white"/>
</mask>
<g mask="url(#mask0_506_14)">
<path d="M149.513 227.763C143.313 227.043 137.023 227.033 130.813 227.713C130.803 226.523 130.783 225.333 130.753 224.153C130.673 221.223 130.553 218.303 130.373 215.393C130.243 213.183 130.083 210.973 129.883 208.773C129.623 205.713 129.293 202.653 128.913 199.603C134.143 198.063 139.373 196.513 143.973 194.503C144.463 198.163 144.993 201.813 145.563 205.463C145.963 208.043 146.383 210.623 146.833 213.203C147.333 216.173 147.863 219.133 148.423 222.093C148.773 223.983 149.143 225.873 149.513 227.763Z" fill="white" stroke="#42272F" stroke-miterlimit="10" stroke-linecap="round" stroke-linejoin="round"/>
<path d="M146.833 213.203C141.453 214.533 135.913 215.273 130.373 215.393C130.243 213.183 130.083 210.973 129.883 208.773C135.203 208.213 140.463 207.103 145.563 205.463C145.963 208.043 146.383 210.623 146.833 213.203Z" fill="#F0CDF7" stroke="#42272F" stroke-miterlimit="10" stroke-linecap="round" stroke-linejoin="round"/>
<path d="M78.9861 225.71C79.5271 215.408 82.8561 204.733 87.7111 195.631C86.6391 194.992 85.5601 194.33 84.7001 193.651C90.4741 183.342 99.0591 174.62 108.878 167.555C117.527 167.423 126.176 167.292 134.676 167.714C140.706 176.569 145.474 186.282 148.547 196.639C144.106 198.705 139.385 200.172 133.534 201.38C131.954 209.861 132.175 218.673 134.177 227.064C115.786 226.645 97.3941 226.226 78.9861 225.71Z" fill="#C887DE" stroke="#42272F" stroke-miterlimit="10" stroke-linecap="round" stroke-linejoin="round"/>
<path d="M110.284 168.734C112.166 172.413 114.133 176.199 117.317 178.833C120.501 181.467 125.256 182.664 128.823 180.577C130.863 179.383 132.25 177.286 133.046 175.06C133.842 172.834 134.108 170.46 134.369 168.11C126.092 167.961 117.814 167.813 110.284 168.734Z" fill="#FFC9BD" stroke="#42272F" stroke-miterlimit="10" stroke-linecap="round" stroke-linejoin="round"/>
<path d="M105.263 202.293C104.483 204.293 103.793 206.333 103.183 208.393C102.483 210.733 101.903 213.103 101.433 215.503C100.883 218.283 100.493 221.103 100.253 223.933C100.103 225.683 100.023 227.443 99.9932 229.193C94.2732 228.763 88.5132 228.753 82.6132 229.323C82.6032 226.683 82.7132 224.033 82.9632 221.403C83.3332 217.413 84.0032 213.453 84.9632 209.563C85.5432 207.123 86.2532 204.723 87.0732 202.343C87.7632 200.343 88.5232 198.363 89.3732 196.423C94.0632 198.463 99.1932 200.273 105.263 202.293Z" fill="white" stroke="#42272F" stroke-miterlimit="10" stroke-linecap="round" stroke-linejoin="round"/>
<path d="M103.183 208.393C102.483 210.733 101.903 213.103 101.433 215.503C95.6131 214.693 89.9631 212.663 84.9631 209.563C85.5431 207.123 86.2531 204.723 87.0731 202.343C91.8931 205.533 97.4431 207.623 103.183 208.393Z" fill="#F0CDF7" stroke="#42272F" stroke-miterlimit="10" stroke-linecap="round" stroke-linejoin="round"/>
<path d="M111.613 182.546C112.203 189.145 111.684 196.342 110.008 202.994C108.164 202.876 106.578 202.691 104.939 202.185" stroke="#42272F" stroke-miterlimit="10" stroke-linecap="round" stroke-linejoin="round"/>
<path d="M136.703 189.376C134.824 193.535 133.683 198.026 133.347 202.578" stroke="#42272F" stroke-miterlimit="10" stroke-linecap="round" stroke-linejoin="round"/>
<path d="M180.742 70.793C179.994 82.146 184.371 93.187 189.386 103.4C194.401 113.613 200.199 123.638 202.644 134.75C205.089 145.862 203.555 158.629 195.508 166.672C196.638 161.783 196.517 156.611 195.16 151.78C193.976 163.741 182.236 173.637 170.247 172.78C174.098 170.284 176.612 165.842 176.77 161.256C169.714 169.062 156.731 170.602 148.044 164.663C159.059 138.135 159.712 107.46 149.836 80.488C160.067 79.984 170.185 77.274 180.742 70.793Z" fill="#FF708A" stroke="#42272F" stroke-miterlimit="10" stroke-linecap="round" stroke-linejoin="round"/>
<path d="M62.2411 144.106C37.7941 121.163 34.071 79.454 54.068 52.543C74.065 25.632 115.074 17.163 144.095 33.951C173.116 50.739 183.349 90.381 174.57 121.393C180.823 128.062 181.844 138.193 179.354 146.989C176.864 155.785 169.426 162.675 160.714 165.444C139.201 172.281 103.578 172.828 79.0821 165.393C67.2281 161.794 61.6871 151.169 62.2411 144.106Z" fill="#FFC9BD" stroke="#42272F" stroke-miterlimit="10" stroke-linecap="round" stroke-linejoin="round"/>
<path d="M62.1621 143.417C61.7491 136.427 61.3421 129.335 62.8141 122.49C64.2861 115.645 67.8961 108.956 73.8781 105.317C73.5851 103.749 73.4051 102.059 73.7351 100.471C74.5791 100.482 75.1161 100.884 75.6531 101.287C82.0411 93.833 91.9711 89.558 101.776 90.041C105.365 83.297 106.92 75.746 106.127 68.432C108.229 74.114 108.934 80.307 108.162 86.315C119.423 81.417 132.638 81.202 144.052 85.733C145.61 82.401 146.142 78.723 145.525 75.24C148.133 78.992 149.95 83.29 150.824 87.774C153.801 83.102 155.29 77.497 155.024 71.963C158.444 76.342 160.714 81.611 161.548 87.105C167.002 86.86 172.572 88.3 176.764 90.916C176.502 85.906 175.507 81.149 173.758 76.973C166.082 60.376 152.57 46.549 136.56 38.627C122.731 33.033 108.278 28.982 93.5561 26.574C80.3601 39.54 67.1641 52.506 55.3321 65.453C51.7741 91.278 53.9421 117.875 62.1621 143.417Z" fill="#F79F97"/>
<path d="M126.445 20.411C147.745 7.86398 173.05 2.23896 196.945 5.23696C204.744 31.966 199.47 62.186 183.078 84.693C178.118 55.556 156.581 29.832 126.445 20.411Z" fill="#42272F"/>
<path d="M180.855 65.701C183.235 64.992 184.793 62.236 184.171 59.831C183.55 57.426 180.852 55.769 178.426 56.302C180.625 54.767 181.111 51.279 179.414 49.201C177.717 47.123 174.203 46.902 172.259 48.75C177.303 34.441 185.182 21.628 195.269 11.301C199.458 32.531 195.519 55.262 184.431 73.846C183.225 71.073 182.017 68.301 180.855 65.701Z" fill="#FFC9BD"/>
<path d="M27.935 82.8811C27.219 96.4271 26.49 110.063 23.309 123.25C22.409 126.983 21.24 130.806 18.67 133.66C16.1 136.514 11.769 138.116 8.29999 136.469C9.34399 139.259 11.888 141.436 14.806 142.035C17.724 142.634 20.921 141.635 22.979 139.481C19.799 144.295 12.954 146.272 7.698 143.895C8.859 148.733 12.521 152.898 17.17 154.668C21.819 156.439 27.324 155.765 31.409 152.925C29.89 155.326 27.576 157.215 24.919 158.222C30.475 160.483 37.599 157.321 39.649 151.684C40.39 156.597 41.694 162.403 44.479 167.561C47.264 172.719 51.772 177.237 57.455 178.674C53.538 175.164 51.02 169.367 51.575 163.781C53.029 170.105 57.709 175.597 63.722 178.036C69.735 180.475 76.918 179.795 82.367 176.271C76.109 173.726 71.4 168.222 68.556 162.094C65.712 155.966 64.541 149.207 63.692 142.505C61.494 125.162 61.27 107.57 63.026 90.1771C63.381 93.3261 66.162 96.4651 69.649 97.4401C64.24 82.1001 66.294 64.3171 75.057 50.6141C67.728 64.1401 67.188 81.1351 73.645 95.0991C79.956 87.6031 88.812 83.0381 98.183 81.5561C103.447 64.8061 101.456 46.4061 93.493 32.0911C105.865 43.7871 113.016 60.8141 113.361 77.8181C121.622 74.8741 130.828 74.6501 140.763 76.8211C141.086 64.7801 137.208 52.6661 129.951 43.0511C141.167 50.7381 148.603 63.6911 150.042 77.7821C152.454 66.7601 149.384 54.6751 142.003 46.1411C153.021 54.3791 160.546 67.1411 162.44 82.7151C171.332 80.5801 181.079 82.2831 189.998 87.1291C185.831 59.8401 167.3 35.1621 142.255 23.5521C133.364 19.4301 122.598 16.9901 114.077 21.6971C94.695 15.7361 71.184 16.0271 54.394 27.3971C37.603 38.7661 29.091 61.0131 27.935 82.8811Z" fill="#FF708A"/>
<mask id="mask1_506_14" style="mask-type:luminance" maskUnits="userSpaceOnUse" x="7" y="17" width="183" height="163">
<path d="M27.935 82.8811C27.219 96.4271 26.49 110.063 23.309 123.25C22.409 126.983 21.24 130.806 18.67 133.66C16.1 136.514 11.769 138.116 8.29999 136.469C9.34399 139.259 11.888 141.436 14.806 142.035C17.724 142.634 20.921 141.635 22.979 139.481C19.799 144.295 12.954 146.272 7.698 143.895C8.859 148.733 12.521 152.898 17.17 154.668C21.819 156.439 27.324 155.765 31.409 152.925C29.89 155.326 27.576 157.215 24.919 158.222C30.475 160.483 37.599 157.321 39.649 151.684C40.39 156.597 41.694 162.403 44.479 167.561C47.264 172.719 51.772 177.237 57.455 178.674C53.538 175.164 51.02 169.367 51.575 163.781C53.029 170.105 57.709 175.597 63.722 178.036C69.735 180.475 76.918 179.795 82.367 176.271C76.109 173.726 71.4 168.222 68.556 162.094C65.712 155.966 64.541 149.207 63.692 142.505C61.494 125.162 61.27 107.57 63.026 90.1771C63.381 93.3261 66.162 96.4651 69.649 97.4401C64.24 82.1001 66.294 64.3171 75.057 50.6141C67.728 64.1401 67.188 81.1351 73.645 95.0991C79.956 87.6031 88.812 83.0381 98.183 81.5561C103.447 64.8061 101.456 46.4061 93.493 32.0911C105.865 43.7871 113.016 60.8141 113.361 77.8181C121.622 74.8741 130.828 74.6501 140.763 76.8211C141.086 64.7801 137.208 52.6661 129.951 43.0511C141.167 50.7381 148.603 63.6911 150.042 77.7821C152.454 66.7601 149.384 54.6751 142.003 46.1411C153.021 54.3791 160.546 67.1411 162.44 82.7151C171.332 80.5801 181.079 82.2831 189.998 87.1291C185.831 59.8401 167.3 35.1621 142.255 23.5521C133.364 19.4301 122.598 16.9901 114.077 21.6971C94.695 15.7361 71.184 16.0271 54.394 27.3971C37.603 38.7661 29.091 61.0131 27.935 82.8811Z" fill="white"/>
</mask>
<g mask="url(#mask1_506_14)">
<path d="M114.791 14.582C125.277 15.867 135.373 20.196 143.533 26.905C148.649 31.111 153.329 37.579 151.309 43.886C149.841 48.471 145.258 51.32 140.726 52.942C121.482 59.83 100.025 51.424 79.822 54.523C75.426 55.197 70.773 56.39 66.669 54.673C62.554 52.952 60.01 48.505 59.665 44.058C59.32 39.611 60.875 35.202 63.082 31.326C51.862 37.544 41.657 46.235 35.734 57.613C29.811 68.991 28.704 83.292 34.816 94.57C37.362 81.8 48.404 72.043 60.608 67.504C72.812 62.965 86.146 62.77 99.166 62.864C112.186 62.958 125.443 63.256 137.942 59.607C145.58 57.377 153.086 53.661 161.027 54.173C168.483 54.653 175.29 58.909 180.381 64.378C185.471 69.847 189.09 76.492 192.654 83.058C194.956 63.383 187.267 42.796 172.632 29.447C157.997 16.098 136.792 10.329 114.791 14.582Z" fill="#FFADC6"/>
</g>
<path d="M27.935 82.8811C27.219 96.4271 26.49 110.063 23.309 123.25C22.409 126.983 21.24 130.806 18.67 133.66C16.1 136.514 11.769 138.116 8.29999 136.469C9.34399 139.259 11.888 141.436 14.806 142.035C17.724 142.634 20.921 141.635 22.979 139.481C19.799 144.295 12.954 146.272 7.698 143.895C8.859 148.733 12.521 152.898 17.17 154.668C21.819 156.439 27.324 155.765 31.409 152.925C29.89 155.326 27.576 157.215 24.919 158.222C30.475 160.483 37.599 157.321 39.649 151.684C40.39 156.597 41.694 162.403 44.479 167.561C47.264 172.719 51.772 177.237 57.455 178.674C53.538 175.164 51.02 169.367 51.575 163.781C53.029 170.105 57.709 175.597 63.722 178.036C69.735 180.475 76.918 179.795 82.367 176.271C76.109 173.726 71.4 168.222 68.556 162.094C65.712 155.966 64.541 149.207 63.692 142.505C61.494 125.162 61.27 107.57 63.026 90.1771C63.381 93.3261 66.162 96.4651 69.649 97.4401C64.24 82.1001 66.294 64.3171 75.057 50.6141C67.728 64.1401 67.188 81.1351 73.645 95.0991C79.956 87.6031 88.812 83.0381 98.183 81.5561C103.447 64.8061 101.456 46.4061 93.493 32.0911C105.865 43.7871 113.016 60.8141 113.361 77.8181C121.622 74.8741 130.828 74.6501 140.763 76.8211C141.086 64.7801 137.208 52.6661 129.951 43.0511C141.167 50.7381 148.603 63.6911 150.042 77.7821C152.454 66.7601 149.384 54.6751 142.003 46.1411C153.021 54.3791 160.546 67.1411 162.44 82.7151C171.332 80.5801 181.079 82.2831 189.998 87.1291C185.831 59.8401 167.3 35.1621 142.255 23.5521C133.364 19.4301 122.598 16.9901 114.077 21.6971C94.695 15.7361 71.184 16.0271 54.394 27.3971C37.603 38.7661 29.091 61.0131 27.935 82.8811Z" stroke="#42272F" stroke-miterlimit="10" stroke-linecap="round" stroke-linejoin="round"/>
<path d="M39.157 101.52C37.793 73.073 53.537 44.468 78.299 30.4C55.624 19.237 28.416 17.66 5.29602 25.857C2.13102 54.332 15.03 84.058 39.157 101.52Z" fill="#42272F"/>
<path d="M34.378 88.5951C34.224 84.3591 35.274 80.0861 37.374 76.4041C35.137 77.0221 32.896 75.8601 32.269 74.0991C31.643 72.3371 32.332 70.3231 33.54 68.8971C34.748 67.4701 36.406 66.5131 38.029 65.5851C36.242 65.9121 34.552 64.2661 34.49 62.5311C34.428 60.7961 35.621 59.2111 37.104 58.3091C38.587 57.4071 40.331 57.0581 42.034 56.7241C34.306 43.8151 21.635 34.7681 8.76903 32.0701C7.06903 53.7871 17.051 76.0751 34.378 88.5951Z" fill="#FFC9BD"/>
<path d="M39.801 152.647C36.482 134.245 38.75 119.765 38.75 98.115" stroke="#42272F" stroke-miterlimit="10" stroke-linecap="round" stroke-linejoin="round"/>
<path d="M65.088 53.491C58.887 65.255 58.342 79.845 63.648 92.039" stroke="#42272F" stroke-miterlimit="10" stroke-linecap="round" stroke-linejoin="round"/>
<path d="M109.998 79.7949C110.597 86.3699 108.098 93.1609 103.38 97.7799C98.662 102.398 91.819 104.752 85.259 104.014C96.068 100.271 105.083 91.6539 109.998 79.7949Z" fill="#E84F5C" stroke="#42272F" stroke-miterlimit="10" stroke-linecap="round" stroke-linejoin="round"/>
<path d="M148.145 79.728C148.785 85.39 152.056 90.699 156.824 93.818C161.593 96.937 167.768 97.805 173.212 96.122C163.103 94.4 153.726 88.696 148.145 79.728Z" fill="#E84F5C" stroke="#42272F" stroke-miterlimit="10" stroke-linecap="round" stroke-linejoin="round"/>
<path d="M141.507 128.437C138.497 129.27 135.313 129.117 132.345 128.149C127.874 126.691 122.654 127.412 118.526 129.807C113.148 132.927 109.489 138.454 107.475 144.336C106.492 147.206 105.853 150.263 106.246 153.271C106.639 156.279 108.185 159.24 110.782 160.807C114.032 162.769 118.393 162.178 121.54 160.054C124.687 157.93 126.761 154.52 128.107 150.97C128.676 149.469 129.158 147.882 130.211 146.671C131.264 145.46 133.103 144.743 134.509 145.518C136.185 146.441 136.981 149.186 138.87 148.881C140.663 148.591 141.018 145.669 143.231 145.878C143.989 145.95 144.669 146.401 145.116 147.016C146.08 148.34 146.053 149.985 146.244 151.545C146.491 153.552 147.154 155.557 148.456 157.104C149.758 158.651 151.763 159.682 153.777 159.499C156.288 159.271 158.342 157.227 159.308 154.898C160.274 152.569 160.351 149.98 160.372 147.459C160.402 143.953 160.344 140.392 159.35 137.029C158.357 133.666 156.306 130.476 153.209 128.831C150.737 127.519 147.804 127.293 145.033 127.677C143.86 127.84 142.708 128.104 141.507 128.437Z" fill="#C2325B" stroke="#42272F" stroke-miterlimit="10" stroke-linecap="round" stroke-linejoin="round"/>
<path d="M133.875 151.379C135.072 154.716 135.032 158.482 133.764 161.793" stroke="#42272F" stroke-miterlimit="10" stroke-linecap="round" stroke-linejoin="round"/>
<path d="M141.414 154.361C142.788 156.86 143.154 159.895 142.414 162.649" stroke="#42272F" stroke-miterlimit="10" stroke-linecap="round" stroke-linejoin="round"/>
<path d="M96.7071 168.092C97.9981 168.885 99.5311 169.279 101.045 169.207C96.4411 165.103 92.6381 159.906 91.0571 153.944C89.4761 147.983 90.3391 141.219 94.1381 136.36C97.6801 135.132 101.379 133.374 104.689 131.058C106.198 130.002 107.655 128.8 108.625 127.234C109.595 125.668 110.02 123.676 109.374 121.951C108.728 120.226 106.841 118.937 104.956 119.38C99.2701 121.67 94.5601 126.101 91.5011 131.413C88.4421 136.724 86.9801 142.874 86.8271 149.001C86.7361 152.628 87.0991 156.298 88.2671 159.734C89.4351 163.17 91.9871 165.193 96.7071 168.092Z" fill="#F79F97"/>
<path d="M89.6561 132.497C93.8891 128.751 98.1711 124.971 103.09 122.369C108.009 119.767 113.699 118.415 119.027 119.801C118.306 115.584 115.193 112.542 111.971 112.533C101.581 111.844 91.0261 117.496 85.5311 126.83C83.8931 127.802 81.7551 127.711 80.1941 126.601C80.2101 128.161 81.0151 129.685 82.2521 130.499C81.2961 130.947 80.1551 130.911 79.2251 130.404C79.7201 132.611 81.7511 134.168 83.8491 134.428C85.9461 134.689 88.0871 133.886 89.6561 132.497Z" fill="#42272F"/>
<path d="M102.905 115.952C102.837 115.057 104.387 114.21 106.367 114.059C108.347 113.908 110.007 114.511 110.075 115.406C110.143 116.301 108.593 117.149 106.613 117.299C104.634 117.451 102.973 116.847 102.905 115.952Z" fill="white"/>
<path d="M87.5111 166.372C83.5941 162.717 81.8211 157.128 81.5051 151.78C81.1881 146.432 82.7071 140.993 85.7471 136.582C83.4131 136.923 81.7911 134.828 82.0081 132.939C82.2251 131.051 83.7201 129.543 85.3581 128.578C86.9961 127.613 88.8381 127.033 90.4701 126.058C92.2911 124.97 93.7881 123.43 95.3741 122.022C96.9601 120.614 98.7201 119.293 100.782 118.795C102.844 118.297 105.271 118.802 106.542 120.499C107.92 122.338 107.547 125.065 106.207 126.932C104.867 128.799 102.765 129.962 100.656 130.875C98.5471 131.788 96.3361 132.527 94.1081 133.617C89.8791 139.04 88.0601 146.275 89.2201 153.054C90.3801 159.833 94.5031 166.05 100.314 169.833C99.4411 171.865 100.58 174.155 100.686 176.364C100.792 178.576 99.6541 180.918 97.6301 181.816C95.6061 182.714 92.8301 181.723 92.1831 179.605C91.3321 176.821 94.6811 173.454 92.9921 171.083C91.5401 169.046 89.9341 168.633 87.5111 166.372Z" fill="#D9F8FF" stroke="#42272F" stroke-miterlimit="10" stroke-linecap="round" stroke-linejoin="round"/>
<path d="M103.36 122.26C104.322 122.675 104.778 123.862 104.61 124.897C104.442 125.931 103.778 126.82 103.025 127.548C100.916 129.587 97.9221 130.676 94.9961 130.467C97.3081 129.919 99.3151 128.217 100.234 126.026C100.622 125.102 100.838 124.08 101.463 123.296C102.087 122.513 103.341 122.087 103.36 122.26Z" fill="#94CEEB"/>
<path d="M98.2971 174.109C98.6661 175.008 98.9671 175.954 98.9811 176.926C98.9951 177.898 98.6921 178.906 97.9971 179.587C97.3031 180.267 96.1821 180.543 95.3151 180.103C94.4481 179.664 94.0201 178.448 94.5511 177.633C94.8621 177.156 95.4071 176.89 95.9401 176.687C96.4731 176.484 97.0341 176.312 97.4701 175.946C97.9061 175.579 98.1841 174.947 98.2971 174.109Z" fill="#94CEEB"/>
<path d="M175.151 115.378C171.738 111.659 166.993 109.189 161.99 108.527C156.986 107.865 151.762 109.015 148.08 111.758C146.744 113.602 146.433 116.143 147.668 118.276C156.163 115.447 166.071 117.348 173.169 123.273C174.524 123.904 176.14 123.95 177.529 123.397C178.918 122.844 180.06 121.7 180.611 120.31C179.263 120.571 177.819 120.294 176.663 119.553C177.969 119.611 179.291 119.091 180.207 118.159C181.123 117.226 181.62 115.896 181.539 114.591C179.598 116.019 176.488 116.834 175.151 115.378Z" fill="#42272F"/>
<path d="M160.692 111.37C160.865 110.489 162.584 110.085 164.533 110.468C166.481 110.85 167.921 111.874 167.748 112.755C167.575 113.636 165.856 114.04 163.907 113.657C161.959 113.274 160.519 112.251 160.692 111.37Z" fill="white"/>
<path d="M160.665 116.762C158.767 117.224 157.549 119.325 157.745 121.269C157.941 123.212 159.316 124.901 161.018 125.858C162.721 126.815 164.714 127.128 166.604 127.33C171.724 131.771 173.656 139.142 172.695 145.851C171.734 152.561 168.231 158.671 163.984 163.954C167.28 162.487 170.178 160.134 172.291 157.209C176.642 151.187 177.409 143.042 175.386 135.894C173.364 128.744 168.811 122.52 160.665 116.762Z" fill="#F79F97"/>
<path d="M172.728 162.686C177.046 158.065 179.799 152.007 180.441 145.715C181.083 139.423 179.61 132.934 176.314 127.536C177.274 127.301 178.596 126.095 178.858 124.665C179.121 123.234 178.395 121.71 177.195 120.888C176.745 120.579 176.239 120.366 175.71 120.243C173.686 119.772 171.748 119.027 170.057 117.82C168.994 117.061 167.916 116.441 166.8 115.898C164.648 114.85 161.893 114.127 160.119 116.136C159.637 116.682 159.338 117.382 159.24 118.104C158.922 120.456 160.312 122.453 162.082 123.759C163.409 124.738 164.949 125.38 167.312 125.818C173.095 130.276 175.735 138.116 174.806 145.359C173.878 152.602 169.725 159.186 163.947 164.199C164.55 165.412 164.475 166.851 164.218 168.181C163.961 169.511 163.535 170.819 163.477 172.172C163.42 173.526 163.806 174.992 164.874 175.826C166.269 176.914 168.361 176.556 169.83 175.57C171.737 174.291 172.973 171.922 172.562 169.663C172.347 168.483 171.723 167.412 171.476 166.239C171.232 165.067 171.684 163.804 172.728 162.686Z" fill="#D9F8FF" stroke="#42272F" stroke-miterlimit="10" stroke-linecap="round" stroke-linejoin="round"/>
<path d="M161.463 118.075C160.969 118.675 160.891 119.545 161.13 120.285C161.368 121.025 161.884 121.647 162.469 122.158C164.561 123.985 167.713 124.496 170.275 123.423C168.707 123.215 167.282 122.142 166.649 120.693C166.357 120.025 166.222 119.287 165.84 118.667C165.41 117.97 164.671 117.471 163.864 117.333C163.056 117.195 162.087 117.317 161.463 118.075Z" fill="#94CEEB"/>
<path d="M166.474 168.228C165.838 168.942 165.319 169.784 165.116 170.719C164.913 171.653 165.054 172.687 165.624 173.454C166.194 174.221 167.225 174.663 168.148 174.415C169.071 174.167 169.764 173.163 169.55 172.231C169.343 171.33 168.471 170.778 167.761 170.186C167.05 169.593 166.404 168.626 166.474 168.228Z" fill="#94CEEB"/>
</g>
</svg>
