<?xml version="1.0" encoding="utf-8"?>
<!-- Generator: Adobe Illustrator 27.5.0, SVG Export Plug-In . SVG Version: 6.00 Build 0)  -->
<svg version="1.1" xmlns="http://www.w3.org/2000/svg" xmlns:xlink="http://www.w3.org/1999/xlink" x="0px" y="0px"
	 viewBox="0 0 750 500" style="enable-background:new 0 0 750 500;" xml:space="preserve">
<g id="BACKGROUND">
	<linearGradient id="SVGID_1_" gradientUnits="userSpaceOnUse" x1="375" y1="500" x2="375" y2="0">
		<stop  offset="0" style="stop-color:#FFFFEB"/>
		<stop  offset="0.6347" style="stop-color:#FAE6E7"/>
		<stop  offset="1" style="stop-color:#74B8ED"/>
	</linearGradient>
	<rect style="fill:url(#SVGID_1_);" width="750" height="500"/>
</g>
<g id="OBJECTS">
	<g>
		<defs>
			<rect id="SVGID_00000083772018704786863310000018279602564780387007_" width="750" height="500"/>
		</defs>
		<clipPath id="SVGID_00000121269782661179465930000007073368390097040808_">
			<use xlink:href="#SVGID_00000083772018704786863310000018279602564780387007_"  style="overflow:visible;"/>
		</clipPath>
		<g style="clip-path:url(#SVGID_00000121269782661179465930000007073368390097040808_);">
			<path style="fill:#FDFDFD;" d="M726.159,233.225c-12.153-5.663-25.548-4.065-37.263,2.978
				c-13.102,7.876-18.063,23.422-28.7,34.58c-20.306,21.3-39.432-23.638-60.229-3.71c-13.503,12.939-20.567,39.443-37.412,45.182
				c-15.53,5.289-23.988-14.057-37.493-15.901c-11.688-1.596-25.72,14.454-31.952,27.313c-1.005,2.073-1.95,4.273-3.093,6.172
				v140.16H750V243.037C741.841,243.281,734.067,236.91,726.159,233.225z"/>
			<path style="fill:#FDFDFD;" d="M356.494,469.998v-94.205c-2.305-8.046-11.04-0.403-15.628,0.242
				c-9.081,1.276-14.423-3.715-16.271-15.49c-1.603-10.212-0.811-22.111-4.974-30.324c-5.109-10.08-16.155-11.603-26.46-10.756
				c-10.305,0.846-21.245,3.346-30.092-1.034c-11.137-5.514-16.804-20.922-27.552-27.298c-9.947-5.901-23.15-3.208-35.115,3.625
				c-10.707,6.115-21.809,21.356-32.144,25.779c-10.315,4.414-17.079-5.909-23.136-12.865c-7.997-9.185-18.512-14.699-30.025-16.02
				c-12.66-1.453-24.24,2.293-33.536-9.24c-11.256-13.964-10.544-44.073-26.486-48.965c-9.801-3.008-21.906,5.541-32.102,3.829
				C13.167,235.631,7.266,225.069,0,217.695v252.303H356.494z"/>
		</g>
		<g style="clip-path:url(#SVGID_00000121269782661179465930000007073368390097040808_);">
			
				<linearGradient id="SVGID_00000174592767468079108670000014330915545780730810_" gradientUnits="userSpaceOnUse" x1="95.6945" y1="46.4351" x2="95.6945" y2="28.8663">
				<stop  offset="0" style="stop-color:#FDFDFD;stop-opacity:0.2368"/>
				<stop  offset="0.7703" style="stop-color:#FDFDFD"/>
			</linearGradient>
			<path style="fill:url(#SVGID_00000174592767468079108670000014330915545780730810_);" d="M32.647,46.163
				c3.861-1.933,6.2-7.144,9.359-10.043c4.873-4.492,12.193-6.782,19.389-6.515c7.952,0.316,12.487,4.704,18.873,6.965
				c11.402,4.387,17.946-12.198,29.919-6.496c7.303,3.711,10.799,12.076,18.561,13.764c7.068,1.629,11.886-4.257,18.729-4.285
				c4.483-0.009,8.75,3.086,11.265,6.61C158.742,46.163,33.139,46.775,32.647,46.163z"/>
			
				<linearGradient id="SVGID_00000039104528798190052910000016161272846219706013_" gradientUnits="userSpaceOnUse" x1="-1636.1948" y1="77.4582" x2="-1636.1948" y2="59.8893" gradientTransform="matrix(-1 0 0 1 -1114.3488 0)">
				<stop  offset="0" style="stop-color:#FDFDFD;stop-opacity:0.2368"/>
				<stop  offset="0.7703" style="stop-color:#FDFDFD"/>
			</linearGradient>
			<path style="fill:url(#SVGID_00000039104528798190052910000016161272846219706013_);" d="M584.893,77.186
				c-3.861-1.933-6.2-7.144-9.358-10.043c-4.873-4.492-12.193-6.782-19.389-6.515c-7.952,0.317-12.487,4.704-18.873,6.965
				c-11.402,4.387-17.946-12.198-29.919-6.496c-7.303,3.711-10.798,12.076-18.561,13.764c-7.068,1.629-11.886-4.257-18.729-4.285
				c-4.483-0.009-8.75,3.086-11.265,6.61C458.799,77.186,584.401,77.798,584.893,77.186z"/>
			
				<linearGradient id="SVGID_00000181060411677339994830000008993509492203094929_" gradientUnits="userSpaceOnUse" x1="-1842.1097" y1="119.4718" x2="-1842.1097" y2="97.6383" gradientTransform="matrix(-1 0 0 1 -1626.5748 0)">
				<stop  offset="0" style="stop-color:#FDFDFD;stop-opacity:0.2368"/>
				<stop  offset="0.7703" style="stop-color:#FDFDFD"/>
			</linearGradient>
			<path style="fill:url(#SVGID_00000181060411677339994830000008993509492203094929_);" d="M293.886,119.134
				c-4.799-2.402-7.705-8.878-11.63-12.481c-6.056-5.583-15.153-8.428-24.096-8.097c-9.883,0.393-15.518,5.846-23.454,8.655
				c-14.169,5.452-22.303-15.159-37.182-8.073c-9.076,4.612-13.42,15.007-23.066,17.105c-8.784,2.024-14.771-5.291-23.275-5.325
				c-5.571-0.011-10.874,3.835-13.999,8.215C137.184,119.134,293.275,119.894,293.886,119.134z"/>
			<g>
				
					<linearGradient id="SVGID_00000158739259182814258040000010791095518392171150_" gradientUnits="userSpaceOnUse" x1="129.4637" y1="74.0173" x2="129.4637" y2="40.4855">
					<stop  offset="0" style="stop-color:#FDFDFD;stop-opacity:0.2368"/>
					<stop  offset="0.7703" style="stop-color:#FDFDFD"/>
				</linearGradient>
				<path style="fill:url(#SVGID_00000158739259182814258040000010791095518392171150_);" d="M236.69,62.054
					c-2.23-0.381-4.506-0.345-6.677,0.275c-2.831,0.808-5.302,2.542-8.026,3.659c-5.99,2.457-11.681-1.029-15.457-5.714
					c-9.366-11.623-15.871-24.169-33.213-18.292c-7.34,2.488-14.103,6.911-21.788,7.911c-18.017,2.343-36.066-14.569-52.923-7.792
					c-12.79,5.142-18.258,21.947-31.393,26.13c-8.353,2.66-17.286-0.629-25.595-3.421c-9.259-3.111-16.309-3.518-25.531-0.69
					c-5.545,1.701-11.244,7.006-16.949,9.897h260.651c-1.256,0.077-14.063-8.504-17.545-10.164
					C240.491,63.017,238.607,62.382,236.69,62.054z"/>
			</g>
			<g>
				
					<linearGradient id="SVGID_00000093140920766311699590000005935149087470002861_" gradientUnits="userSpaceOnUse" x1="606.3051" y1="59.8893" x2="606.3051" y2="26.3575">
					<stop  offset="0" style="stop-color:#FDFDFD;stop-opacity:0.2368"/>
					<stop  offset="0.7703" style="stop-color:#FDFDFD"/>
				</linearGradient>
				<path style="fill:url(#SVGID_00000093140920766311699590000005935149087470002861_);" d="M713.531,47.926
					c-2.23-0.381-4.505-0.345-6.677,0.275c-2.831,0.808-5.302,2.542-8.026,3.659c-5.99,2.457-11.681-1.028-15.457-5.714
					c-9.366-11.623-15.871-24.17-33.213-18.292c-7.34,2.488-14.103,6.911-21.788,7.911c-18.017,2.343-36.066-14.569-52.923-7.792
					c-12.79,5.142-18.258,21.947-31.393,26.13c-8.353,2.66-17.286-0.629-25.596-3.421c-9.259-3.111-16.308-3.519-25.531-0.69
					c-5.545,1.701-11.244,7.006-16.949,9.897c0,0,260.651,0,260.651,0c-1.256,0.077-14.063-8.504-17.545-10.164
					C717.332,48.889,715.449,48.254,713.531,47.926z"/>
			</g>
			<g>
				
					<linearGradient id="SVGID_00000150822998999505242630000014279933763094884489_" gradientUnits="userSpaceOnUse" x1="693.6815" y1="210.9709" x2="693.6815" y2="177.4391">
					<stop  offset="0" style="stop-color:#FDFDFD;stop-opacity:0.2368"/>
					<stop  offset="0.7703" style="stop-color:#FDFDFD"/>
				</linearGradient>
				<path style="fill:url(#SVGID_00000150822998999505242630000014279933763094884489_);" d="M800.908,199.008
					c-2.23-0.381-4.506-0.345-6.677,0.275c-2.831,0.808-5.302,2.542-8.026,3.659c-5.99,2.457-11.681-1.029-15.457-5.714
					c-9.366-11.623-15.871-24.17-33.213-18.292c-7.34,2.488-14.103,6.911-21.788,7.911c-18.017,2.343-36.066-14.569-52.923-7.792
					c-12.79,5.142-18.258,21.947-31.393,26.13c-8.353,2.66-17.286-0.628-25.596-3.421c-9.259-3.111-16.308-3.519-25.531-0.69
					c-5.545,1.701-11.244,7.006-16.949,9.897c0,0,260.651,0,260.651,0c-1.256,0.077-14.063-8.504-17.545-10.164
					C804.709,199.97,802.825,199.335,800.908,199.008z"/>
			</g>
			<g>
				
					<linearGradient id="SVGID_00000155860364743101860120000009137422507260779419_" gradientUnits="userSpaceOnUse" x1="-1749.3656" y1="125.5712" x2="-1749.3656" y2="112.7967" gradientTransform="matrix(-1 0 0 1 -1489.8387 0)">
					<stop  offset="0" style="stop-color:#FDFDFD;stop-opacity:0.2368"/>
					<stop  offset="0.7703" style="stop-color:#FDFDFD"/>
				</linearGradient>
				<path style="fill:url(#SVGID_00000155860364743101860120000009137422507260779419_);" d="M218.677,121.014
					c0.849-0.145,1.717-0.132,2.544,0.105c1.079,0.308,2.02,0.968,3.058,1.394c2.282,0.936,4.45-0.392,5.889-2.177
					c3.568-4.428,6.046-9.208,12.653-6.969c2.796,0.948,5.373,2.633,8.301,3.014c6.864,0.893,13.74-5.55,20.162-2.969
					c4.872,1.959,6.956,8.361,11.96,9.954c3.182,1.013,6.585-0.239,9.751-1.303c3.527-1.185,6.213-1.34,9.726-0.263
					c2.112,0.648,4.283,2.669,6.457,3.77h-99.299c0.479,0.029,5.357-3.24,6.684-3.872
					C217.229,121.38,217.947,121.138,218.677,121.014z"/>
			</g>
			<g>
				
					<linearGradient id="SVGID_00000113328026949746295230000002926114477515768987_" gradientUnits="userSpaceOnUse" x1="-2143.5891" y1="180.6494" x2="-2143.5891" y2="161.0847" gradientTransform="matrix(-1 0 0 1 -1489.8387 0)">
					<stop  offset="0" style="stop-color:#FDFDFD;stop-opacity:0.2368"/>
					<stop  offset="0.7703" style="stop-color:#FDFDFD"/>
				</linearGradient>
				<path style="fill:url(#SVGID_00000113328026949746295230000002926114477515768987_);" d="M591.187,173.669
					c1.301-0.222,2.629-0.201,3.896,0.16c1.652,0.471,3.093,1.483,4.683,2.135c3.495,1.434,6.816-0.6,9.019-3.334
					c5.465-6.781,9.26-14.102,19.378-10.673c4.283,1.451,8.228,4.033,12.713,4.615c10.512,1.367,21.043-8.5,30.879-4.546
					c7.462,3,10.653,12.806,18.316,15.246c4.874,1.552,10.086-0.367,14.934-1.996c5.402-1.815,9.515-2.053,14.896-0.403
					c3.235,0.993,6.56,4.088,9.889,5.774H577.71c0.733,0.045,8.205-4.962,10.237-5.93
					C588.969,174.231,590.068,173.86,591.187,173.669z"/>
			</g>
		</g>
		<g style="clip-path:url(#SVGID_00000121269782661179465930000007073368390097040808_);">
			
				<linearGradient id="SVGID_00000101801524016934447160000016906676889578482072_" gradientUnits="userSpaceOnUse" x1="375" y1="434.1563" x2="375" y2="250.0738">
				<stop  offset="0.3352" style="stop-color:#FFFFFF"/>
				<stop  offset="1" style="stop-color:#74B8ED"/>
			</linearGradient>
			<path style="fill:url(#SVGID_00000101801524016934447160000016906676889578482072_);" d="M668.067,348.835
				c-24.855-2.49-101.679-7.204-125.756-14.174v-0.051c-0.331-0.075-0.658-0.159-0.988-0.236
				c-53.145-15.529-104.034-42.081-151.116-80.103c-2.95-3.805-8.809-4.54-15.207-4.071c-6.398-0.469-12.257,0.266-15.207,4.071
				c-47.082,38.022-97.971,64.574-151.116,80.103c-0.33,0.077-0.658,0.161-0.988,0.236v0.051
				c-24.077,6.97-100.902,11.684-125.756,14.174v85.322h586.135V348.835z"/>
			<path style="fill:#FDFDFD;" d="M337.534,277.569c8.758-11.92,17.092-10.137,12.202,5.984c15.348-1.415-2.469-7.861,27.238-15.119
				c3.089-6.953,16.93,10.824,26.138,15.583c5.87,1.546-9.586-10.203-1.151-9.681c10.538,0.949,15.311,13.558,15.542,1.057
				c-2.44-2.193-4.718-4.291-6.85-6.293c-6.889-4.973-13.707-10.17-20.444-15.612c-2.95-3.805-8.809-4.54-15.207-4.071
				c-6.398-0.469-12.257,0.266-15.207,4.071c-6.761,5.46-13.603,10.675-20.516,15.664c-1.862,1.769-3.816,3.608-5.896,5.538
				C339.752,269.266,330.611,283.356,337.534,277.569z"/>
		</g>
		
			<linearGradient id="SVGID_00000172428324560828552630000016681424628289257638_" gradientUnits="userSpaceOnUse" x1="375" y1="491.6549" x2="375" y2="319.9951">
			<stop  offset="0.1722" style="stop-color:#FFFFFF"/>
			<stop  offset="1" style="stop-color:#64AADA"/>
		</linearGradient>
		
			<path style="clip-path:url(#SVGID_00000121269782661179465930000007073368390097040808_);fill:url(#SVGID_00000172428324560828552630000016681424628289257638_);" d="
			M750,469.998V321.283c-2.458-0.491-4.64-0.881-7.196-1.094c-13.447-1.12-26.974,2.717-37.427,8.415
			c-9.354,5.1-15.398,14.888-25.035,19.062c-9.618,4.165-21.355,0.213-30.925-2.17c-12.635-3.146-26.553-3.964-39.855-2.474
			c-14.627,1.639-25.922,5.703-40.961,1.613c-18.21-4.952-29.788-20.313-49.465-19.799c-12.098,0.316-22.001,6.908-34.004,7.954
			c-11.575,1.008-22.482-3.255-33.596-5.618c-15.615-3.32-32.826-2.383-47.878,1.746c-16.834,4.618-23.208,13.732-36.876,20.274
			c-23.716,11.352-48.166-9.272-72.557-4.697c-7.189,1.349-14.323,3.563-21.634,3.327c-14.513-0.469-19.572-14.442-31.859-19.63
			c-9.803-4.14-22.669-2.84-33.743-0.48c-11.073,2.359-22.17,5.674-33.775,5.118c-14.607-0.701-27.216-7.431-41.747-8.641
			c-13.447-1.12-26.974,2.717-37.427,8.415c-9.354,5.1-15.398,14.888-25.035,19.062c-9.618,4.166-21.355,0.213-30.925-2.169
			c-12.175-3.032-25.225-3.879-38.083-2.605v123.107H750z"/>
		
			<linearGradient id="SVGID_00000112623012677516220430000017419336765978590602_" gradientUnits="userSpaceOnUse" x1="375" y1="593.1519" x2="375" y2="336.5488">
			<stop  offset="0" style="stop-color:#64AADA"/>
			<stop  offset="1" style="stop-color:#1C7EB6"/>
		</linearGradient>
		
			<path style="clip-path:url(#SVGID_00000121269782661179465930000007073368390097040808_);fill:url(#SVGID_00000112623012677516220430000017419336765978590602_);" d="
			M750,469.998v-99.494c-85.124-45.215-63.4,26.959-82.188,1.818c-12.276-14.461-29.203-25.585-50.024-24.05
			c-17.674,1.304-32.335,18.835-49.508,14.281c-9.84-2.609-17.52-9.418-25.448-15.356c-7.928-5.939-17.361-11.419-27.638-10.558
			c-17.526,1.468-29.521,20.451-47.075,21.407c-9.638,0.525-18.549-4.661-28.179-4.942c-15.63-0.456-24.843,10.796-34.882,20.888
			c-10.913,10.971-22.904,13.749-38.27,11.546c-12.558-1.799-25.218-5.655-37.698-3.379c-4.312,0.786-8.493,2.296-12.857,2.701
			c-10.672,0.991-17.003-8.695-26.202-12.251c-11.112-4.295-22.519-4.822-31.988,3.456c-6.478,5.664-11.304,19.797-18.521,6.913
			c-9.69-15.267-23.238-27.542-40.224-27.491c-14.419,0.043-26.728,16.455-40.615,10.702c-7.957-3.296-14.067-10.619-20.396-17.093
			c-6.329-6.474-13.895-12.599-22.281-12.472c-14.302,0.218-24.471,18.263-38.785,17.968c-7.859-0.162-15.006-5.956-22.84-6.919
			c-15.311-1.883-23.252,12.586-32.781,22.813C11.432,381.394,0,374.083,0,374.083v95.915H750z"/>
		
			<linearGradient id="SVGID_00000076604403382650764940000004295439142218874753_" gradientUnits="userSpaceOnUse" x1="375" y1="500" x2="375" y2="365.1667">
			<stop  offset="0" style="stop-color:#74B8ED"/>
			<stop  offset="0.876" style="stop-color:#FFFFFF"/>
		</linearGradient>
		
			<rect y="365.167" style="clip-path:url(#SVGID_00000121269782661179465930000007073368390097040808_);fill:url(#SVGID_00000076604403382650764940000004295439142218874753_);" width="750" height="134.833"/>
		<defs>
			<filter id="Adobe_OpacityMaskFilter" filterUnits="userSpaceOnUse" x="0" y="362.806" width="750" height="44.745">
				<feColorMatrix  type="matrix" values="1 0 0 0 0  0 1 0 0 0  0 0 1 0 0  0 0 0 1 0"/>
			</filter>
		</defs>
		
			<mask maskUnits="userSpaceOnUse" x="0" y="362.806" width="750" height="44.745" id="SVGID_00000182511582383592180120000011906414782201563526_">
			<g style="filter:url(#Adobe_OpacityMaskFilter);">
				
					<linearGradient id="SVGID_00000155129542073033320660000012785513328654707110_" gradientUnits="userSpaceOnUse" x1="375" y1="500.8481" x2="375" y2="362.8064">
					<stop  offset="0.5845" style="stop-color:#000000"/>
					<stop  offset="1" style="stop-color:#FFFFFF"/>
				</linearGradient>
				
					<rect y="362.806" style="clip-path:url(#SVGID_00000121269782661179465930000007073368390097040808_);fill:url(#SVGID_00000155129542073033320660000012785513328654707110_);" width="750" height="138.042"/>
			</g>
		</mask>
		
			<g style="opacity:0.4;clip-path:url(#SVGID_00000121269782661179465930000007073368390097040808_);mask:url(#SVGID_00000182511582383592180120000011906414782201563526_);">
			<g>
				
					<linearGradient id="SVGID_00000181069532557125139950000014338837265220838078_" gradientUnits="userSpaceOnUse" x1="375" y1="6953.9453" x2="375" y2="6873.6675" gradientTransform="matrix(1 0 0 -1 0 7280.8779)">
					<stop  offset="0.3352" style="stop-color:#FFFFFF"/>
					<stop  offset="1" style="stop-color:#74B8ED"/>
				</linearGradient>
				<path style="fill:url(#SVGID_00000181069532557125139950000014338837265220838078_);" d="M750,362.806v1.335
					c-31.804,1.086-130.106,3.141-160.914,6.181v0.022c-0.423,0.033-0.842,0.069-1.264,0.103
					c-68.003,6.772-133.118,18.351-193.363,34.932c-3.774,1.66-11.271,1.98-19.458,1.775c-8.187,0.204-15.684-0.116-19.458-1.775
					c-60.245-16.581-125.361-28.16-193.363-34.932c-0.423-0.034-0.841-0.07-1.265-0.103v-0.022
					c-30.808-3.04-129.111-5.095-160.914-6.181v-1.335H750z"/>
				<path style="fill:#FDFDFD;" d="M327.059,395.22c11.207,5.198,21.87,4.421,15.613-2.61c19.639,0.617-3.159,3.428,34.852,6.593
					c3.952,3.032,21.663-4.721,33.446-6.796c7.51-0.674-12.266,4.45-1.473,4.222c13.484-0.414,19.592-5.913,19.887-0.461
					c-3.122,0.956-6.037,1.871-8.766,2.745c-8.815,2.168-17.539,4.435-26.16,6.808c-3.774,1.66-11.271,1.98-19.458,1.776
					c-8.187,0.204-15.684-0.116-19.458-1.776c-8.651-2.381-17.406-4.655-26.252-6.831c-2.383-0.772-4.883-1.574-7.544-2.415
					C329.897,398.841,318.202,392.696,327.059,395.22z"/>
			</g>
			
				<linearGradient id="SVGID_00000001621655401146693110000010876463665873229456_" gradientUnits="userSpaceOnUse" x1="375" y1="6961.3267" x2="375" y2="6902.8218" gradientTransform="matrix(1 0 0 -1 0 7280.8779)">
				<stop  offset="0.1722" style="stop-color:#FFFFFF"/>
				<stop  offset="1" style="stop-color:#64AADA"/>
			</linearGradient>
			<path style="fill:url(#SVGID_00000001621655401146693110000010876463665873229456_);" d="M750,362.806v14.811
				c-2.458,0.167-4.64,0.3-7.195,0.373c-13.447,0.382-26.974-0.926-37.427-2.868c-9.354-1.738-15.398-5.074-25.035-6.497
				c-9.618-1.42-21.355-0.073-30.925,0.74c-12.635,1.072-26.553,1.351-39.855,0.843c-14.627-0.559-25.922-1.944-40.961-0.55
				c-18.21,1.688-29.788,6.923-49.465,6.748c-12.097-0.108-22.001-2.354-34.004-2.711c-11.575-0.344-22.482,1.109-33.596,1.914
				c-15.615,1.132-32.826,0.812-47.878-0.595c-16.834-1.574-23.208-4.68-36.876-6.91c-23.716-3.869-48.166,3.16-72.557,1.601
				c-7.189-0.46-14.323-1.214-21.634-1.134c-14.513,0.16-19.572,4.922-31.859,6.69c-9.803,1.411-22.669,0.968-33.743,0.164
				c-11.073-0.804-22.17-1.934-33.774-1.744c-14.607,0.239-27.216,2.533-41.747,2.945c-13.447,0.382-26.974-0.926-37.427-2.868
				c-9.354-1.738-15.398-5.074-25.035-6.497c-9.618-1.42-21.355-0.073-30.925,0.739c-12.175,1.033-25.225,1.322-38.083,0.888v-6.083
				H750z"/>
			
				<linearGradient id="SVGID_00000119095033411908302320000003676879483763776918_" gradientUnits="userSpaceOnUse" x1="537.4258" y1="6995.9185" x2="537.4258" y2="6908.4639" gradientTransform="matrix(1 0 0 -1 0 7280.8779)">
				<stop  offset="0" style="stop-color:#64AADA"/>
				<stop  offset="1" style="stop-color:#1C7EB6"/>
			</linearGradient>
			<path style="fill:url(#SVGID_00000119095033411908302320000003676879483763776918_);" d="M660.568,362.806
				c-11.393,3.593-25.789,6.039-42.78,5.612c-17.674-0.445-32.335-6.419-49.508-4.867c-9.84,0.889-17.52,3.21-25.448,5.234
				c-7.928,2.024-17.361,3.892-27.638,3.598c-17.526-0.5-29.521-6.97-47.075-7.296c-9.638-0.179-18.549,1.589-28.179,1.684
				c-10.83,0.108-18.578-1.701-25.656-3.966H660.568z"/>
			
				<linearGradient id="SVGID_00000075878400009393605970000018274148148967005314_" gradientUnits="userSpaceOnUse" x1="710.8626" y1="6995.9194" x2="710.8626" y2="6908.4639" gradientTransform="matrix(1 0 0 -1 0 7280.8779)">
				<stop  offset="0" style="stop-color:#64AADA"/>
				<stop  offset="1" style="stop-color:#1C7EB6"/>
			</linearGradient>
			<path style="fill:url(#SVGID_00000075878400009393605970000018274148148967005314_);" d="M738.364,362.806
				c-35.062,5.463-48.404,2.984-55.003,0H738.364z"/>
			
				<linearGradient id="SVGID_00000138540365339393143620000012320029444951542952_" gradientUnits="userSpaceOnUse" x1="199.4928" y1="6995.9194" x2="199.4928" y2="6908.4639" gradientTransform="matrix(1 0 0 -1 0 7280.8779)">
				<stop  offset="0" style="stop-color:#64AADA"/>
				<stop  offset="1" style="stop-color:#1C7EB6"/>
			</linearGradient>
			<path style="fill:url(#SVGID_00000138540365339393143620000012320029444951542952_);" d="M223.761,362.806
				c-7.107,1.943-15.282,3.163-24.464,3.154c-8.506-0.009-16.278-1.958-24.073-3.154H223.761z"/>
			
				<linearGradient id="SVGID_00000127004225952179973930000009694193883054994056_" gradientUnits="userSpaceOnUse" x1="91.1537" y1="6995.9185" x2="91.1537" y2="6908.4639" gradientTransform="matrix(1 0 0 -1 0 7280.8779)">
				<stop  offset="0" style="stop-color:#64AADA"/>
				<stop  offset="1" style="stop-color:#1C7EB6"/>
			</linearGradient>
			<path style="fill:url(#SVGID_00000127004225952179973930000009694193883054994056_);" d="M155.723,362.806
				c-6.56,1.262-11.916,3.407-17.438,5.332c-6.33,2.206-13.895,4.294-22.281,4.25c-14.302-0.074-24.471-6.224-38.785-6.124
				c-7.859,0.055-15.006,2.03-22.84,2.358c-12.587,0.527-20.193-2.711-27.795-5.817H155.723z"/>
		</g>
		
			<linearGradient id="SVGID_00000101075669922798828840000002088706875047761067_" gradientUnits="userSpaceOnUse" x1="-1708.7216" y1="342.7827" x2="-1708.7216" y2="215.099" gradientTransform="matrix(-0.9948 -0.1017 -0.1017 0.9948 -765.2582 -62.8051)">
			<stop  offset="0" style="stop-color:#01424D"/>
			<stop  offset="1" style="stop-color:#03373C"/>
		</linearGradient>
		
			<polygon style="clip-path:url(#SVGID_00000121269782661179465930000007073368390097040808_);fill:url(#SVGID_00000101075669922798828840000002088706875047761067_);" points="
			1060.51,345.031 1022.506,341.874 1012.176,355.355 992.28,353.521 983.457,332.186 959.691,343.528 920.699,334.045 
			914.559,351.714 899.474,349.384 889.275,372.547 865.631,376.792 873.002,389.742 859.261,406.213 829.391,386.805 
			811.306,400.068 798.816,393.699 773.459,408.228 742.216,435.871 1060.51,435.871 		"/>
		
			<circle style="clip-path:url(#SVGID_00000121269782661179465930000007073368390097040808_);fill:#FDFDFD;" cx="524.746" cy="141.809" r="42.963"/>
		<defs>
			
				<filter id="Adobe_OpacityMaskFilter_00000093858530106480278730000015201836798040912786_" filterUnits="userSpaceOnUse" x="185.169" y="409.083" width="379.662" height="161.114">
				<feColorMatrix  type="matrix" values="1 0 0 0 0  0 1 0 0 0  0 0 1 0 0  0 0 0 1 0"/>
			</filter>
		</defs>
		
			<mask maskUnits="userSpaceOnUse" x="185.169" y="409.083" width="379.662" height="161.114" id="SVGID_00000161599382026189991900000004863320542498067596_">
			<g style="filter:url(#Adobe_OpacityMaskFilter_00000093858530106480278730000015201836798040912786_);">
				
					<linearGradient id="SVGID_00000118393687787958745360000011242744167878567094_" gradientUnits="userSpaceOnUse" x1="375" y1="629.191" x2="375" y2="409.083">
					<stop  offset="0.5845" style="stop-color:#000000"/>
					<stop  offset="1" style="stop-color:#FFFFFF"/>
				</linearGradient>
				
					<rect x="162.678" y="409.083" style="clip-path:url(#SVGID_00000121269782661179465930000007073368390097040808_);fill:url(#SVGID_00000118393687787958745360000011242744167878567094_);" width="424.643" height="220.108"/>
			</g>
		</mask>
		
			<g style="opacity:0.3;clip-path:url(#SVGID_00000121269782661179465930000007073368390097040808_);mask:url(#SVGID_00000161599382026189991900000004863320542498067596_);">
			<g>
				<rect x="218.153" y="517.026" style="fill:#FF4E53;" width="313.695" height="11.477"/>
				<rect x="218.153" y="517.026" style="opacity:0.6;fill:#D35E67;" width="313.695" height="1.779"/>
			</g>
			<g>
				<polygon style="fill:#FF4E53;" points="297.714,527.71 259.204,527.71 259.204,532.734 278.459,531.288 297.714,532.734 				"/>
				<polygon style="fill:#FF4E53;" points="490.796,527.71 452.286,527.71 452.286,532.734 471.541,531.288 490.796,532.734 				"/>
			</g>
			<g>
				<polygon style="fill:#FF4E53;" points="462.736,414.029 497.582,414.029 481.607,540.872 456.116,540.872 				"/>
				<polygon style="opacity:0.6;fill:#D35E67;" points="481.607,540.872 474.855,540.872 490.829,414.029 497.582,414.029 				"/>
				<polygon style="fill:#272747;" points="497.945,420.623 499.411,409.083 461.831,409.083 461.223,420.623 				"/>
				<polygon style="opacity:0.6;fill:#272747;" points="497.944,420.623 489.853,420.623 491.32,409.083 499.411,409.083 				"/>
			</g>
			<g>
				<polygon style="fill:#FF4E53;" points="287.264,414.029 252.418,414.029 268.392,540.872 293.884,540.872 				"/>
				<polygon style="opacity:0.6;fill:#D35E67;" points="286.979,540.872 280.359,414.029 287.223,414.029 293.843,540.872 				"/>
				<polygon style="fill:#272747;" points="252.055,420.623 250.589,409.083 288.169,409.083 288.777,420.623 				"/>
				<polygon style="opacity:0.6;fill:#272747;" points="280.76,420.623 280.152,409.083 288.169,409.083 288.777,420.623 				"/>
			</g>
			<g>
				<path style="fill:#272747;" d="M468.955,560.247c-25.815-0.552-68.127-0.828-93.955-0.828s-68.14,0.276-93.955,0.828
					c-29.355,0.628-55.244,1.797-87.996,4.399c1.718-3.006,3.451-8.58,5.199-11.584c53.346-2.348,123.291-3.522,176.752-3.522l0,0
					c53.461,0,123.406,1.174,176.752,3.522c1.748,3.004,3.481,8.578,5.199,11.584C524.199,562.044,498.31,560.875,468.955,560.247z"
					/>
				<path style="opacity:0.5;fill:#272747;" d="M551.752,554.777c-53.346-2.348-123.291-3.522-176.752-3.522
					s-123.406,1.174-176.752,3.522c-1.426,2.451-2.843,6.988-4.249,9.795c-0.319,0.025-0.629,0.048-0.95,0.074
					c1.718-3.006,3.451-8.58,5.199-11.584c53.346-2.348,123.291-3.522,176.752-3.522s123.406,1.174,176.752,3.522
					c1.748,3.004,3.481,8.578,5.199,11.584c-0.321-0.025-0.63-0.049-0.95-0.074C554.595,561.766,553.179,557.228,551.752,554.777z"
					/>
				<path style="fill:#3F3E56;" d="M551.752,555.17c-53.346-2.348-123.291-3.522-176.752-3.522s-123.406,1.174-176.752,3.522
					c-1.359,2.335-2.708,6.661-4.049,9.387c-0.386,0.03-0.761,0.058-1.15,0.089c0.321-0.025,0.63-0.049,0.95-0.074
					c1.406-2.807,2.822-7.344,4.249-9.795c53.346-2.348,123.291-3.522,176.752-3.522s123.406,1.174,176.752,3.522
					c1.426,2.451,2.843,6.988,4.249,9.795c0.319,0.025,0.629,0.048,0.95,0.074c-0.388-0.031-0.763-0.059-1.149-0.089
					C554.461,561.831,553.111,557.505,551.752,555.17z"/>
			</g>
			<g>
				<path style="fill:#272747;" d="M461.66,564.6c-23.386-0.55-63.266-0.909-86.66-1.053c-23.395,0.145-63.274,0.504-86.66,1.053
					c-34.972,0.822-82.116,3.41-103.171,5.596l4.594-5.3c35.071-2.787,65.692-4.285,98.575-4.886
					c23.387-0.427,63.266-0.641,86.662-0.641c23.396,0,63.275,0.214,86.662,0.641c32.883,0.6,63.505,2.099,98.575,4.886l4.594,5.3
					C543.777,568.01,496.632,565.422,461.66,564.6z"/>
				<path style="opacity:0.5;fill:#272747;" d="M560.237,566.466c-35.07-2.787-65.692-4.285-98.575-4.886
					c-23.387-0.427-63.266-0.641-86.662-0.641c-23.396,0-63.275,0.214-86.662,0.641c-32.884,0.601-63.505,2.099-98.575,4.886
					l-3.103,3.58c-0.505,0.05-1.012,0.1-1.491,0.15l4.594-5.3c35.071-2.787,65.692-4.286,98.575-4.886
					c23.387-0.427,63.266-0.641,86.662-0.641c23.396,0,63.275,0.214,86.662,0.641c32.883,0.6,63.505,2.099,98.575,4.886l4.594,5.3
					c-0.479-0.05-0.986-0.1-1.491-0.15L560.237,566.466z"/>
			</g>
			<g>
				<path style="fill:#6F1C0D;" d="M279.998,539.022c-8.317,0-15.06-0.446-15.06-0.996c0-0.238,1.265-0.456,3.369-0.628
					c-0.003,0.01-0.018,0.02-0.018,0.03c0,0.55,5.242,0.996,11.708,0.996c6.466,0,11.708-0.446,11.708-0.996
					c0-0.01-0.014-0.02-0.018-0.03c2.104,0.171,3.37,0.39,3.37,0.628C295.058,538.576,288.315,539.022,279.998,539.022z"/>
				<g>
					<g>
						
							<linearGradient id="SVGID_00000158020320264987172470000007431689196097918653_" gradientUnits="userSpaceOnUse" x1="375" y1="7171.7983" x2="375" y2="7156.8594" gradientTransform="matrix(1 0 0 -1 0 7709.8237)">
							<stop  offset="0.4034" style="stop-color:#FF4E53"/>
							<stop  offset="0.5243" style="stop-color:#F24650"/>
							<stop  offset="0.7491" style="stop-color:#CF2F4A"/>
							<stop  offset="1" style="stop-color:#A11241"/>
						</linearGradient>
						<path style="fill:url(#SVGID_00000158020320264987172470000007431689196097918653_);" d="M375,549.507
							c-50.47,0-117.423,1.153-167.776,3.457c1.551-2.891,3.117-6.904,4.697-9.793c17.673-0.778,35.36-1.41,53.055-1.906v-3.239
							c0,0.55,6.742,0.996,15.06,0.996c8.317,0,15.059-0.446,15.06-0.996v2.539c21.135-0.401,58.762-0.603,79.905-0.605
							c21.143,0.002,58.77,0.203,79.905,0.605v-2.539c0.001,0.55,6.743,0.996,15.06,0.996c8.317,0,15.06-0.446,15.06-0.996v3.239
							c17.695,0.496,35.382,1.128,53.055,1.906c1.58,2.889,3.146,6.902,4.697,9.793C492.423,550.659,425.47,549.507,375,549.507z"/>
						
							<linearGradient id="SVGID_00000181783529596823750060000005095688568829826178_" gradientUnits="userSpaceOnUse" x1="265.0197" y1="7171.9009" x2="265.0197" y2="7171.7983" gradientTransform="matrix(1 0 0 -1 0 7709.8237)">
							<stop  offset="0.4034" style="stop-color:#FF4E53"/>
							<stop  offset="0.5243" style="stop-color:#F24653"/>
							<stop  offset="0.7491" style="stop-color:#CF2F53"/>
							<stop  offset="1" style="stop-color:#A11253"/>
						</linearGradient>
						<path style="fill:url(#SVGID_00000181783529596823750060000005095688568829826178_);" d="M265.063,537.923
							c-0.053,0.034-0.087,0.068-0.087,0.103v-0.103H265.063z"/>
						
							<linearGradient id="SVGID_00000085236881385076238580000003717404137638414720_" gradientUnits="userSpaceOnUse" x1="295.0518" y1="7171.9009" x2="295.0518" y2="7171.7983" gradientTransform="matrix(1 0 0 -1 0 7709.8237)">
							<stop  offset="0.4034" style="stop-color:#FF4E53"/>
							<stop  offset="0.5243" style="stop-color:#F24653"/>
							<stop  offset="0.7491" style="stop-color:#CF2F53"/>
							<stop  offset="1" style="stop-color:#A11253"/>
						</linearGradient>
						<path style="fill:url(#SVGID_00000085236881385076238580000003717404137638414720_);" d="M295.095,537.923v0.103
							c0-0.035-0.035-0.069-0.087-0.103H295.095z"/>
					</g>
					<g>
						<path style="opacity:0.6;fill:#D35E67;" d="M211.921,543.171c17.673-0.778,35.36-1.41,53.055-1.906v1.642
							c-17.995,0.498-35.98,1.135-53.952,1.92C211.325,544.275,211.619,543.723,211.921,543.171z"/>
						<path style="opacity:0.6;fill:#D35E67;" d="M295.095,540.564c21.119-0.401,58.731-0.603,79.858-0.605l0.047,1.661
							c-21.143,0.002-58.77,0.201-79.905,0.597V540.564z"/>
						<path style="opacity:0.6;fill:#D35E67;" d="M485.024,542.907v-1.642c17.695,0.496,35.382,1.128,53.055,1.906
							c0.302,0.552,0.596,1.104,0.897,1.656C521.004,544.042,503.018,543.404,485.024,542.907z"/>
						<path style="opacity:0.6;fill:#D35E67;" d="M375.047,539.959c21.127,0.002,58.739,0.204,79.858,0.605v1.653
							c-21.135-0.396-58.762-0.595-79.905-0.597L375.047,539.959z"/>
					</g>
				</g>
				<path style="fill:#6F1C0D;" d="M469.964,539.022c8.317,0,15.06-0.446,15.06-0.996c0-0.238-1.265-0.456-3.369-0.628
					c0.003,0.01,0.018,0.02,0.018,0.03c0,0.55-5.242,0.996-11.708,0.996c-6.466,0-11.708-0.446-11.708-0.996
					c0-0.01,0.014-0.02,0.018-0.03c-2.104,0.171-3.37,0.39-3.37,0.628C454.905,538.576,461.647,539.022,469.964,539.022z"/>
			</g>
		</g>
		
			<linearGradient id="SVGID_00000036940138672447052940000015568964716881133992_" gradientUnits="userSpaceOnUse" x1="751.725" y1="523.5689" x2="751.725" y2="315.9408">
			<stop  offset="0" style="stop-color:#84BCEA"/>
			<stop  offset="1" style="stop-color:#1C92DA"/>
		</linearGradient>
		
			<path style="clip-path:url(#SVGID_00000121269782661179465930000007073368390097040808_);fill:url(#SVGID_00000036940138672447052940000015568964716881133992_);" d="
			M480.562,473.924c1.433-16.199,12.354-28.468,24.394-27.404c5.351,0.474,10.015,3.511,13.429,8.151
			c1.634-12.385,7.85-21.958,17.094-24.19c12.505-3.018,26.211,8.419,32.55,26.18c4.646-5.739,10.43-9.638,16.015-11.294
			c-3.745-1.294-6.298-3.508-6.774-6.346c-0.829-4.938,4.896-10.137,13.301-12.608c-7.222-5.415-10.972-12.9-8.885-19.522
			c2.479-7.868,12.406-12.011,23.718-10.664c-0.541-1.069-1.054-2.164-1.508-3.311c-5.985-15.121-1.727-30.985,9.511-35.434
			c4.995-1.977,10.526-1.355,15.658,1.262c-4.095-11.802-2.833-23.146,4.429-29.287c9.823-8.306,27.202-4.232,40.835,8.799
			c3.119-14.254,13.432-24.114,23.102-22.042c9.708,2.081,15.085,15.396,12.011,29.741c-0.217,1.014-0.479,1.999-0.767,2.966
			c3.879-2.261,8.164-3.345,12.563-2.913c2.847,0.28,5.513,1.194,7.96,2.594c-1.709-10.729,1.742-20.337,9.148-23.269
			c7.929-3.138,17.786,2.406,23.834,12.673c0.566-0.978,1.168-1.948,1.834-2.899c9.327-13.322,24.915-18.502,34.816-11.57
			c4.401,3.081,6.926,8.041,7.568,13.766c7.598-9.917,17.763-15.109,26.886-12.428c12.342,3.627,18.51,20.378,15.138,38.933
			c13.617-5.245,27.526-2.064,31.12,7.148c3.608,9.249-4.546,21.069-18.214,26.401c-0.966,0.377-1.933,0.7-2.898,0.993
			c4.023,1.993,7.288,4.973,9.349,8.883c1.334,2.531,2.038,5.26,2.217,8.074c6.181-5.656,13.491-8.381,19.509-7.235
			c-5.99-9.434-7.865-18.169-3.983-21.727c4.982-4.566,17.625,1.06,28.819,12.586c-4.415-14.214-0.014-28.41,10.518-32.579
			c4.678-1.852,9.824-1.406,14.675,0.804c-0.124-0.344-0.263-0.673-0.382-1.02c-6.59-19.257-3.034-37.913,7.942-41.67
			c10.977-3.756,25.217,8.81,31.808,28.066c0.118,0.346,0.209,0.689,0.321,1.034c7.664-10.512,18.184-16.081,27.585-13.319
			c13.706,4.027,19.839,24.231,13.699,45.126v138.191H480.562V473.924z"/>
		
			<linearGradient id="SVGID_00000117653972919852730390000009374852124763531949_" gradientUnits="userSpaceOnUse" x1="-1525.4705" y1="523.7805" x2="-1525.4705" y2="207.5618" gradientTransform="matrix(0.893 0.4501 -0.4501 0.893 1572.1222 878.8275)">
			<stop  offset="0" style="stop-color:#84BCEA"/>
			<stop  offset="1" style="stop-color:#1C92DA"/>
		</linearGradient>
		
			<path style="clip-path:url(#SVGID_00000121269782661179465930000007073368390097040808_);fill:url(#SVGID_00000117653972919852730390000009374852124763531949_);" d="
			M-151.83,384.093c6.868-11.074,19.107-15.913,27.338-10.809c3.658,2.269,5.9,6.124,6.668,10.676
			c5.636-8.273,13.537-12.88,20.956-11.142c10.036,2.351,15.718,15.478,13.847,30.473c5.394-2.431,10.939-3.134,15.532-2.305
			c-2.213-2.277-3.241-4.781-2.558-6.984c1.188-3.832,7.16-5.487,14.064-4.224c-3.214-6.479-3.197-13.188,0.684-17.173
			c4.612-4.736,13.208-4.12,20.816,0.924c-0.001-0.96,0.026-1.929,0.115-2.913c1.171-12.978,9.94-22.793,19.586-21.923
			c4.287,0.387,8.02,2.827,10.748,6.551c1.327-9.922,6.322-17.583,13.732-19.358c10.024-2.4,20.99,6.783,26.044,21.024
			c7.373-9.074,18.308-12.409,24.48-7.439c6.195,4.99,5.24,16.457-2.133,25.612c-0.521,0.647-1.064,1.257-1.618,1.845
			c3.591-0.219,7.048,0.551,10.039,2.447c1.936,1.227,3.514,2.843,4.76,4.727c2.647-8.293,8.581-13.923,14.938-13.349
			c6.805,0.614,11.858,8.137,12.483,17.664c0.758-0.495,1.538-0.972,2.358-1.412c11.479-6.168,24.5-4.252,29.084,4.279
			c2.037,3.792,2.056,8.252,0.449,12.579c9.013-4.355,18.159-4.404,23.72,0.805c7.523,7.047,5.894,21.257-3.211,33.317
			c11.634,1.159,20.439,8.451,19.688,16.339c-0.754,7.919-10.852,13.435-22.555,12.321c-0.827-0.079-1.635-0.196-2.432-0.335
			c2.16,2.877,3.421,6.186,3.485,9.728c0.042,2.292-0.439,4.499-1.326,6.576c6.462-1.818,12.676-1.131,16.568,1.86
			c-0.883-8.911,0.926-15.837,4.987-16.983c5.211-1.47,12.228,7.115,16.08,19.4c1.967-11.763,10.237-20.333,19.276-19.517
			c4.015,0.362,7.536,2.537,10.21,5.868c0.035-0.291,0.054-0.576,0.094-0.868c2.23-16.156,11.504-28.222,20.712-26.951
			c9.209,1.272,14.866,15.399,12.636,31.554c-0.04,0.29-0.099,0.568-0.143,0.856c9.275-4.758,18.811-4.948,24.541,0.42
			c8.354,7.825,0,114.64,0,114.64h-431.83L-151.83,384.093z"/>
		<g style="clip-path:url(#SVGID_00000121269782661179465930000007073368390097040808_);">
			
				<linearGradient id="SVGID_00000180326891717596599130000001327873993340646311_" gradientUnits="userSpaceOnUse" x1="114.3825" y1="139.9033" x2="114.3825" y2="105.4384">
				<stop  offset="0" style="stop-color:#1C7EB6"/>
				<stop  offset="1" style="stop-color:#64AADA"/>
			</linearGradient>
			
				<ellipse style="fill:url(#SVGID_00000180326891717596599130000001327873993340646311_);" cx="114.383" cy="122.671" rx="39.642" ry="17.232"/>
			
				<linearGradient id="SVGID_00000162336877890443700150000003115613931442209674_" gradientUnits="userSpaceOnUse" x1="115.6549" y1="336.2726" x2="115.6549" y2="292.272">
				<stop  offset="0" style="stop-color:#44408D"/>
				<stop  offset="1" style="stop-color:#1C7EB6"/>
			</linearGradient>
			
				<ellipse style="fill:url(#SVGID_00000162336877890443700150000003115613931442209674_);" cx="115.655" cy="314.272" rx="43.087" ry="22"/>
			
				<linearGradient id="SVGID_00000168819574548423425490000009681004092382153653_" gradientUnits="userSpaceOnUse" x1="164.728" y1="309.8479" x2="164.728" y2="277.5378">
				<stop  offset="0" style="stop-color:#2D89BF"/>
				<stop  offset="1" style="stop-color:#64BAEC"/>
			</linearGradient>
			
				<ellipse style="fill:url(#SVGID_00000168819574548423425490000009681004092382153653_);" cx="164.728" cy="293.693" rx="31.639" ry="16.155"/>
			<path style="fill:#252577;" d="M63.44,178.798c3.128-0.38,6.266-0.939,9.288-1.97c3.008-1.047,5.973-2.351,8.756-4.055
				c2.777-1.708,5.429-3.691,7.916-5.919c2.457-2.262,4.759-4.738,6.901-7.38c4.263-5.307,7.845-11.262,10.87-17.516
				c2.991-6.272,5.502-12.838,7.268-19.635c-0.974,6.965-2.721,13.841-5.021,20.559c-2.338,6.704-5.296,13.264-9.156,19.408
				c-1.943,3.062-4.106,6.015-6.516,8.81c-2.445,2.763-5.153,5.341-8.115,7.669c-2.969,2.325-6.259,4.279-9.713,5.944
				c-3.473,1.651-7.174,2.791-10.941,3.683L63.44,178.798z"/>
			
				<linearGradient id="SVGID_00000000945333735153718290000010098907873855663509_" gradientUnits="userSpaceOnUse" x1="3.8094" y1="203.1422" x2="3.8094" y2="122.7192">
				<stop  offset="0" style="stop-color:#1C7EB6"/>
				<stop  offset="1" style="stop-color:#64AADA"/>
			</linearGradient>
			
				<ellipse style="fill:url(#SVGID_00000000945333735153718290000010098907873855663509_);" cx="3.809" cy="162.931" rx="78.752" ry="40.211"/>
			
				<linearGradient id="SVGID_00000126311074128744750380000001396665549336543630_" gradientUnits="userSpaceOnUse" x1="50.7112" y1="245.537" x2="50.7112" y2="165.1141">
				<stop  offset="0" style="stop-color:#44408D"/>
				<stop  offset="1" style="stop-color:#1C7EB6"/>
			</linearGradient>
			
				<ellipse style="fill:url(#SVGID_00000126311074128744750380000001396665549336543630_);" cx="50.711" cy="205.326" rx="78.752" ry="40.211"/>
			
				<linearGradient id="SVGID_00000163072322705431845390000004010473025638863791_" gradientUnits="userSpaceOnUse" x1="-28.041" y1="264.5914" x2="-28.041" y2="196.0372">
				<stop  offset="0" style="stop-color:#44408D"/>
				<stop  offset="1" style="stop-color:#1C7EB6"/>
			</linearGradient>
			
				<ellipse style="fill:url(#SVGID_00000163072322705431845390000004010473025638863791_);" cx="-28.041" cy="230.314" rx="67.13" ry="34.277"/>
			
				<linearGradient id="SVGID_00000126324411923156512920000012000929877040772521_" gradientUnits="userSpaceOnUse" x1="139.2189" y1="195.42" x2="139.2189" y2="152.5098">
				<stop  offset="0" style="stop-color:#2D89BF"/>
				<stop  offset="1" style="stop-color:#64BAEC"/>
			</linearGradient>
			
				<ellipse style="fill:url(#SVGID_00000126324411923156512920000012000929877040772521_);" cx="139.219" cy="173.965" rx="50.324" ry="21.455"/>
			
				<linearGradient id="SVGID_00000062161992081923072030000006634462460794467749_" gradientUnits="userSpaceOnUse" x1="47.8532" y1="420.7457" x2="47.8532" y2="171.7678">
				<stop  offset="0" style="stop-color:#252577"/>
				<stop  offset="1" style="stop-color:#44408D"/>
			</linearGradient>
			<path style="fill:url(#SVGID_00000062161992081923072030000006634462460794467749_);" d="M137.632,192.859
				c-0.912,6.969-2.38,13.861-4.895,20.325c-5.084,12.915-13.595,24.351-24.045,33.191c-10.389,8.974-23.239,14.439-35.776,21.624
				c-4.501,2.573-8.996,5.449-13.209,8.83c0.139-2.176,0.248-4.348,0.316-6.516c0.471-19.544-1.691-38.616-4.122-57.565
				c-0.248,9.555-0.528,19.103-1.204,28.585c-0.722,9.473-1.653,18.896-3.346,28.095c-1.702,9.16-4.032,18.096-7.168,26.608
				c-0.313,0.732-0.611,1.473-0.879,2.229c-0.606,1.509-1.237,3.005-1.902,4.481c-5.23-2.465-10.157-5.654-14.308-9.779
				c-4.44-4.333-8.082-9.593-10.753-15.405c-2.718-5.798-4.475-12.121-5.482-18.591c-0.979-6.476-1.294-13.13-0.65-19.743
				c-1.41,6.504-1.889,13.229-1.664,19.961c0.256,6.73,1.291,13.521,3.469,20.072c2.129,6.553,5.438,12.86,9.901,18.374
				c4.229,5.318,9.576,9.752,15.399,13.338c-1.696,3.117-3.51,6.154-5.438,9.101l-3.801,5.475l-4.186,5.194
				c-0.716,0.849-1.342,1.751-2.127,2.552l-2.282,2.442l-2.269,2.435c-0.753,0.811-1.488,1.632-2.332,2.378
				c-3.293,3.064-6.363,6.048-10.061,9.244c-3.581,3.165-7.206,6.391-10.839,9.719c-3.631,3.361-7.258,6.836-10.833,10.516
				c-3.558,3.72-7.06,7.629-10.406,11.852c-3.315,4.265-6.471,8.82-9.319,13.743c-2.792,4.971-5.242,10.291-7.213,15.909
				l33.625,9.214c0.653-3.549,1.63-7.146,2.955-10.772c1.398-3.613,3.137-7.253,5.146-10.891c2.059-3.629,4.406-7.253,6.931-10.868
				c2.567-3.608,5.324-7.211,8.193-10.82c2.901-3.61,5.9-7.237,8.96-10.906c3.035-3.553,6.255-7.734,9.374-11.72
				c0.805-0.978,1.516-2.053,2.238-3.112l2.162-3.174l2.149-3.166c0.734-1.037,1.322-2.198,1.987-3.29
				c1.287-2.218,2.589-4.414,3.837-6.636l3.371-6.891c4.231-9.29,7.495-18.949,9.578-28.752c0.509-2.489,0.951-4.979,1.335-7.471
				c1.102-1.581,2.324-3.119,3.67-4.581c4.383-4.83,9.723-8.948,15.487-12.748c5.751-3.822,11.87-7.363,17.905-11.251
				c3.017-1.945,6.013-3.977,8.918-6.175c2.903-2.214,5.686-4.584,8.313-7.106c10.485-10.104,18.555-22.608,22.965-36.334
				c2.179-6.882,3.211-14.007,3.679-21.085c0.48-7.089,0.438-14.16,0.512-21.227C138.971,178.816,138.557,185.883,137.632,192.859z"
				/>
			
				<linearGradient id="SVGID_00000070091315501816237000000009033999236088123322_" gradientUnits="userSpaceOnUse" x1="-13.0839" y1="382.8311" x2="163.7064" y2="382.8311">
				<stop  offset="0" style="stop-color:#252577"/>
				<stop  offset="1" style="stop-color:#44408D"/>
			</linearGradient>
			<path style="fill:url(#SVGID_00000070091315501816237000000009033999236088123322_);" d="M163.676,296.65
				c-0.738,8.426-1.533,16.897-3.587,24.991c-1.027,4.036-2.371,7.97-4.204,11.595c-1.827,3.622-4.165,6.917-7.027,9.57
				c-1.41,1.313-3.004,2.546-4.67,3.639c-0.839,0.539-1.655,1.103-2.54,1.566c-0.865,0.49-1.725,0.983-2.633,1.389
				c-3.566,1.734-7.342,2.993-11.188,3.754c-6.901,1.373-14.04,1.103-20.531-0.83c4.755-10.133,7.539-21.025,8.358-31.89
				c-3.479,15.642-11.037,30.109-21.708,41.205c-2.618,2.812-5.52,5.311-8.473,7.665l-2.293,1.661l-1.14,0.827l-1.192,0.749
				l-2.37,1.494c-0.808,0.464-1.637,0.887-2.449,1.332c-3.279,1.747-6.605,3.163-10.207,4.351
				c-3.582,1.202-7.329,2.243-11.209,3.348c-3.887,1.112-7.913,2.303-12.011,3.85c-4.091,1.527-8.272,3.522-12.246,6.054
				c-7.948,5.079-14.363,11.853-19.676,18.956c-2.665,3.565-5.052,7.246-7.276,10.97c-2.328,3.927-4.258,7.896-6.041,11.53
				c-1.776,3.628-3.437,7.021-5.157,9.869c-1.707,2.896-3.492,5.173-5.29,6.906l21.142,17.813c3.311-4.428,5.684-9.049,7.442-13.356
				c1.796-4.338,3.069-8.393,4.294-12.176c1.217-3.777,2.325-7.217,3.637-10.414c1.412-3.398,2.934-6.706,4.634-9.843
				c3.396-6.269,7.462-11.939,12.476-16.298c4.93-4.373,11.541-7.64,18.802-10.873c3.634-1.63,7.418-3.29,11.203-5.202
				c3.781-1.882,7.577-4.178,11.035-6.73c0.862-0.647,1.737-1.273,2.579-1.937l2.445-2.083l1.215-1.04l1.147-1.112l2.28-2.22
				c2.904-3.083,5.656-6.27,8.04-9.703c1.158-1.618,2.251-3.273,3.288-4.956c9.056,2.262,18.47,1.801,27.055-0.786
				c4.353-1.311,8.512-3.169,12.35-5.52c0.975-0.56,1.896-1.209,2.815-1.855c0.937-0.617,1.802-1.339,2.68-2.034
				c1.744-1.408,3.373-2.93,4.905-4.657c3.034-3.42,5.274-7.389,6.866-11.489c1.599-4.109,2.592-8.356,3.246-12.602
				C163.79,313.616,163.75,305.109,163.676,296.65z"/>
		</g>
		<g style="clip-path:url(#SVGID_00000121269782661179465930000007073368390097040808_);">
			
				<linearGradient id="SVGID_00000181047919829825483860000009525893914902592677_" gradientUnits="userSpaceOnUse" x1="-1358.6299" y1="43.1234" x2="-1358.6299" y2="-15.7861" gradientTransform="matrix(-1 0 0 1 -675.1572 0)">
				<stop  offset="0" style="stop-color:#1C7EB6"/>
				<stop  offset="1" style="stop-color:#64AADA"/>
			</linearGradient>
			
				<ellipse style="fill:url(#SVGID_00000181047919829825483860000009525893914902592677_);" cx="683.473" cy="13.669" rx="67.758" ry="29.455"/>
			
				<linearGradient id="SVGID_00000180336981156338051090000013306877236702269886_" gradientUnits="userSpaceOnUse" x1="-1254.8392" y1="73.6979" x2="-1254.8392" y2="36.2842" gradientTransform="matrix(-1 0 0 1 -675.1572 0)">
				<stop  offset="0" style="stop-color:#44408D"/>
				<stop  offset="1" style="stop-color:#1C7EB6"/>
			</linearGradient>
			
				<ellipse style="fill:url(#SVGID_00000180336981156338051090000013306877236702269886_);" cx="579.682" cy="54.991" rx="43.034" ry="18.707"/>
			<path style="fill:#252577;" d="M735.404,65.206c-3.188-0.388-6.387-0.957-9.469-2.008c-3.066-1.067-6.089-2.397-8.926-4.133
				c-2.831-1.741-5.534-3.763-8.07-6.034c-2.504-2.306-4.852-4.83-7.035-7.523c-4.346-5.41-7.997-11.481-11.081-17.855
				c-3.049-6.393-5.608-13.087-7.409-20.016c0.993,7.1,2.774,14.109,5.118,20.958c2.383,6.835,5.399,13.522,9.334,19.784
				c1.98,3.121,4.185,6.132,6.642,8.981c2.492,2.817,5.253,5.445,8.272,7.818c3.026,2.37,6.38,4.362,9.902,6.059
				c3.54,1.683,7.313,2.845,11.154,3.755L735.404,65.206z"/>
			
				<linearGradient id="SVGID_00000069382835511144537420000003748819154218524547_" gradientUnits="userSpaceOnUse" x1="-1471.3481" y1="90.0225" x2="-1471.3481" y2="8.0393" gradientTransform="matrix(-1 0 0 1 -675.1572 0)">
				<stop  offset="0" style="stop-color:#1C7EB6"/>
				<stop  offset="1" style="stop-color:#64AADA"/>
			</linearGradient>
			
				<ellipse style="fill:url(#SVGID_00000069382835511144537420000003748819154218524547_);" cx="796.191" cy="49.031" rx="80.28" ry="40.992"/>
			
				<linearGradient id="SVGID_00000141421752006103257250000002329613324150773935_" gradientUnits="userSpaceOnUse" x1="-1423.5364" y1="139.8557" x2="-1423.5364" y2="44.6407" gradientTransform="matrix(-1 0 0 1 -675.1572 0)">
				<stop  offset="0" style="stop-color:#44408D"/>
				<stop  offset="1" style="stop-color:#1C7EB6"/>
			</linearGradient>
			
				<ellipse style="fill:url(#SVGID_00000141421752006103257250000002329613324150773935_);" cx="748.379" cy="92.248" rx="93.237" ry="47.607"/>
			
				<linearGradient id="SVGID_00000160876029719339419770000001614354879064590226_" gradientUnits="userSpaceOnUse" x1="-1455.2095" y1="140.061" x2="-1455.2095" y2="97.5428" gradientTransform="matrix(-1 0 0 1 -675.1572 0)">
				<stop  offset="0" style="stop-color:#2D89BF"/>
				<stop  offset="1" style="stop-color:#64BAEC"/>
			</linearGradient>
			
				<ellipse style="fill:url(#SVGID_00000160876029719339419770000001614354879064590226_);" cx="780.052" cy="118.802" rx="41.635" ry="21.259"/>
			
				<linearGradient id="SVGID_00000018925070967799863540000017309781107110101938_" gradientUnits="userSpaceOnUse" x1="-1298.0457" y1="110.5682" x2="-1298.0457" y2="54.991" gradientTransform="matrix(-1 0 0 1 -675.1572 0)">
				<stop  offset="0" style="stop-color:#2D89BF"/>
				<stop  offset="1" style="stop-color:#64BAEC"/>
			</linearGradient>
			
				<ellipse style="fill:url(#SVGID_00000018925070967799863540000017309781107110101938_);" cx="622.888" cy="82.78" rx="65.18" ry="27.789"/>
			
				<linearGradient id="SVGID_00000005249203617951786320000011439905948850467511_" gradientUnits="userSpaceOnUse" x1="-1962.3521" y1="550.8516" x2="-1962.3521" y2="297.0527" gradientTransform="matrix(-0.9856 0.1692 0.1692 0.9856 -1254.5342 109.9285)">
				<stop  offset="0" style="stop-color:#252577"/>
				<stop  offset="1" style="stop-color:#44408D"/>
			</linearGradient>
			<path style="fill:url(#SVGID_00000005249203617951786320000011439905948850467511_);" d="M643.255,107.35
				c2.118,6.845,4.782,13.516,8.424,19.576c7.336,12.099,17.86,22.12,29.884,29.199c11.986,7.224,25.839,10.498,39.675,15.554
				c4.966,1.809,9.978,3.922,14.794,6.592c-0.516-2.162-0.999-4.326-1.441-6.492c-3.845-19.555-4.963-39.089-5.789-58.546
				c1.897,9.557,3.827,19.102,6.141,28.512c2.359,9.393,4.921,18.699,8.208,27.65c3.29,8.91,7.173,17.486,11.792,25.496
				c0.441,0.681,0.868,1.374,1.267,2.088c0.87,1.412,1.762,2.806,2.684,4.174c4.829-3.378,9.229-7.433,12.689-12.293
				c3.714-5.119,6.465-11.033,8.146-17.332c1.731-6.294,2.405-12.95,2.301-19.624c-0.133-6.676-0.965-13.415-2.753-19.948
				c2.539,6.292,4.18,12.965,5.115,19.768c0.904,6.806,1.036,13.808-0.023,20.764c-1.008,6.951-3.245,13.858-6.777,20.169
				c-3.331,6.073-7.939,11.45-13.171,16.057c2.241,2.839,4.589,5.577,7.034,8.206l4.764,4.845l5.102,4.497
				c0.866,0.729,1.65,1.528,2.577,2.197l2.714,2.06l2.7,2.055c0.897,0.685,1.776,1.384,2.753,1.987
				c3.837,2.51,7.437,4.979,11.703,7.551c4.144,2.562,8.342,5.178,12.566,7.895c4.227,2.75,8.471,5.616,12.698,8.697
				c4.216,3.124,8.409,6.447,12.499,10.113c4.066,3.713,8.023,7.745,11.733,12.2c3.663,4.513,7.042,9.435,9.992,14.739
				l-32.193,15.058c-1.268-3.453-2.87-6.898-4.828-10.313c-2.028-3.389-4.403-6.746-7.049-10.055
				c-2.695-3.291-5.678-6.527-8.838-9.724c-3.201-3.182-6.593-6.327-10.098-9.458c-3.538-3.127-7.176-6.253-10.883-9.412
				c-3.663-3.046-7.618-6.692-11.44-10.158c-0.978-0.844-1.878-1.801-2.786-2.741l-2.72-2.816l-2.706-2.811
				c-0.916-0.916-1.708-1.981-2.564-2.962c-1.675-2.007-3.362-3.988-5-6.005l-4.575-6.341c-5.854-8.604-10.799-17.745-14.583-27.235
				c-0.94-2.413-1.815-4.839-2.63-7.275c-1.38-1.399-2.873-2.732-4.478-3.969c-5.237-4.097-11.312-7.312-17.759-10.136
				c-6.438-2.847-13.196-5.35-19.93-8.215c-3.366-1.433-6.727-2.958-10.025-4.666c-3.298-1.723-6.504-3.625-9.578-5.705
				c-12.277-8.342-22.542-19.513-29.341-32.543c-3.376-6.539-5.642-13.518-7.334-20.55c-1.705-7.039-2.882-14.151-4.176-21.239
				C639.486,93.471,641.121,100.5,643.255,107.35z"/>
		</g>
		
			<linearGradient id="SVGID_00000155110843516247932870000013679877105834159513_" gradientUnits="userSpaceOnUse" x1="-1946.9722" y1="543.5701" x2="-1946.9722" y2="408.156" gradientTransform="matrix(-1 0 0 1 -1924.5266 0)">
			<stop  offset="0" style="stop-color:#1C7EB6"/>
			<stop  offset="1" style="stop-color:#44408D"/>
		</linearGradient>
		
			<path style="clip-path:url(#SVGID_00000121269782661179465930000007073368390097040808_);fill:url(#SVGID_00000155110843516247932870000013679877105834159513_);" d="
			M199.297,511.192c-0.934-10.565-8.057-18.567-15.91-17.873c-3.49,0.309-6.532,2.29-8.758,5.316
			c-1.066-8.078-5.12-14.321-11.149-15.776c-8.156-1.968-17.095,5.491-21.229,17.075c-3.03-3.743-6.803-6.286-10.445-7.366
			c2.442-0.844,4.107-2.288,4.418-4.139c0.54-3.22-3.193-6.612-8.675-8.223c4.71-3.532,7.156-8.413,5.795-12.732
			c-1.617-5.132-8.091-7.833-15.469-6.955c0.353-0.697,0.688-1.412,0.983-2.159c3.904-9.862,1.126-20.208-6.203-23.11
			c-3.258-1.29-6.865-0.883-10.212,0.823c2.671-7.697,1.848-15.096-2.889-19.101c-6.407-5.417-17.741-2.76-26.632,5.739
			c-2.034-9.297-8.761-15.727-15.067-14.376c-6.331,1.357-9.838,10.041-7.833,19.397c0.142,0.661,0.313,1.303,0.5,1.934
			c-2.53-1.475-5.324-2.182-8.193-1.9c-1.857,0.182-3.596,0.779-5.192,1.692c1.115-6.997-1.136-13.264-5.966-15.176
			c-5.171-2.047-11.6,1.569-15.545,8.265c-0.369-0.638-0.762-1.27-1.196-1.89c-6.083-8.689-16.249-12.067-22.707-7.546
			c-2.87,2.01-4.517,5.244-4.936,8.978c-4.955-6.468-11.585-9.854-17.535-8.106c-8.049,2.365-12.072,13.29-9.873,25.392
			c-8.881-3.421-17.952-1.346-20.296,4.662c-2.353,6.032,2.965,13.741,11.879,17.219c0.63,0.246,1.26,0.457,1.89,0.648
			c-2.624,1.3-4.753,3.243-6.097,5.793c-0.87,1.65-1.329,3.431-1.446,5.266c-4.031-3.689-8.799-5.466-12.724-4.718
			c3.906-6.153,5.13-11.85,2.598-14.171c-3.249-2.978-11.495,0.691-18.796,8.209c2.88-9.27,0.009-18.529-6.86-21.248
			c-3.051-1.208-6.408-0.917-9.571,0.524c0.081-0.224,0.172-0.439,0.249-0.665c4.298-12.559,1.979-24.727-5.18-27.177
			c-7.159-2.45-16.447,5.746-20.745,18.305c-0.077,0.225-0.136,0.449-0.209,0.674c-4.998-6.856-11.86-10.488-17.991-8.687
			c-8.939,2.627-12.939,15.804-8.934,29.431v90.128h352.148V511.192z"/>
		<g style="clip-path:url(#SVGID_00000121269782661179465930000007073368390097040808_);">
			<g>
				<g>
					<rect x="218.153" y="189.47" style="fill:#FF4E53;" width="313.695" height="21.106"/>
					<rect x="218.153" y="207.304" style="opacity:0.6;fill:#D35E67;" width="313.695" height="3.272"/>
				</g>
				<g>
					<polygon style="fill:#FF4E53;" points="297.714,190.93 259.204,190.93 259.204,181.691 278.459,184.35 297.714,181.691 					
						"/>
					<polygon style="fill:#FF4E53;" points="490.796,190.93 452.286,190.93 452.286,181.691 471.541,184.35 490.796,181.691 					
						"/>
				</g>
				<g>
					
						<linearGradient id="SVGID_00000125596907063094832360000017560500470325716121_" gradientUnits="userSpaceOnUse" x1="424.6315" y1="181.4053" x2="521.3826" y2="388.8886">
						<stop  offset="0" style="stop-color:#FF4E53"/>
						<stop  offset="0.0928" style="stop-color:#FF5B5B"/>
						<stop  offset="0.2381" style="stop-color:#FF786B"/>
						<stop  offset="0.4385" style="stop-color:#FF5D5C"/>
						<stop  offset="0.5393" style="stop-color:#FF4E53"/>
						<stop  offset="0.6737" style="stop-color:#F24650"/>
						<stop  offset="0.9227" style="stop-color:#CF3049"/>
						<stop  offset="1" style="stop-color:#C32847"/>
					</linearGradient>
					<polygon style="fill:url(#SVGID_00000125596907063094832360000017560500470325716121_);" points="462.736,399.987 
						497.582,399.987 481.607,166.724 456.116,166.724 					"/>
					<polygon style="opacity:0.6;fill:#D35E67;" points="481.607,166.724 474.855,166.724 490.829,399.987 497.582,399.987 					"/>
					<polygon style="fill:#272747;" points="497.945,387.861 499.411,409.083 461.831,409.083 461.223,387.861 					"/>
					<polygon style="opacity:0.6;fill:#272747;" points="497.944,387.861 489.853,387.861 491.32,409.083 499.411,409.083 					"/>
				</g>
				<g>
					
						<linearGradient id="SVGID_00000030472575315189372580000007004242462160262582_" gradientUnits="userSpaceOnUse" x1="227.6288" y1="185.7323" x2="320.3444" y2="384.5616">
						<stop  offset="0" style="stop-color:#FF4E53"/>
						<stop  offset="0.0928" style="stop-color:#FF5B5B"/>
						<stop  offset="0.2381" style="stop-color:#FF786B"/>
						<stop  offset="0.4385" style="stop-color:#FF5D5C"/>
						<stop  offset="0.5393" style="stop-color:#FF4E53"/>
						<stop  offset="0.6737" style="stop-color:#F24650"/>
						<stop  offset="0.9227" style="stop-color:#CF3049"/>
						<stop  offset="1" style="stop-color:#C32847"/>
					</linearGradient>
					<polygon style="fill:url(#SVGID_00000030472575315189372580000007004242462160262582_);" points="287.264,399.987 
						252.418,399.987 268.392,166.724 293.884,166.724 					"/>
					<polygon style="opacity:0.6;fill:#D35E67;" points="286.979,166.724 280.359,399.987 287.223,399.987 293.843,166.724 					"/>
					<polygon style="fill:#272747;" points="252.055,387.861 250.589,409.083 288.169,409.083 288.777,387.861 					"/>
					<polygon style="opacity:0.6;fill:#272747;" points="280.76,387.861 280.152,409.083 288.169,409.083 288.777,387.861 					"/>
				</g>
				<g>
					<path style="fill:#272747;" d="M468.955,131.094c-25.815,1.015-68.127,1.522-93.955,1.522s-68.14-0.507-93.955-1.522
						c-29.355-1.154-55.244-3.306-87.996-8.09c1.718,5.528,3.451,15.778,5.199,21.302c53.346,4.318,123.291,6.477,176.752,6.477l0,0
						c53.461,0,123.406-2.159,176.752-6.477c1.748-5.524,3.481-15.774,5.199-21.302C524.199,127.788,498.31,129.94,468.955,131.094z
						"/>
					<path style="opacity:0.5;fill:#272747;" d="M551.752,141.152c-53.346,4.318-123.291,6.477-176.752,6.477
						s-123.406-2.159-176.752-6.477c-1.426-4.507-2.843-12.851-4.249-18.013c-0.319-0.046-0.629-0.089-0.95-0.136
						c1.718,5.528,3.451,15.778,5.199,21.302c53.346,4.318,123.291,6.477,176.752,6.477s123.406-2.159,176.752-6.477
						c1.748-5.524,3.481-15.774,5.199-21.302c-0.321,0.047-0.63,0.09-0.95,0.136C554.595,128.301,553.179,136.645,551.752,141.152z"
						/>
					<path style="fill:#3F3E56;" d="M551.752,140.431c-53.346,4.318-123.291,6.477-176.752,6.477s-123.406-2.159-176.752-6.477
						c-1.359-4.294-2.708-12.25-4.049-17.262c-0.386-0.056-0.761-0.108-1.15-0.164c0.321,0.047,0.63,0.09,0.95,0.136
						c1.406,5.162,2.822,13.506,4.249,18.013c53.346,4.318,123.291,6.477,176.752,6.477s123.406-2.159,176.752-6.477
						c1.426-4.507,2.843-12.851,4.249-18.013c0.319-0.046,0.629-0.089,0.95-0.136c-0.388,0.057-0.763,0.108-1.149,0.164
						C554.461,128.18,553.111,136.137,551.752,140.431z"/>
				</g>
				<g>
					<path style="fill:#272747;" d="M461.66,123.088c-23.386,1.011-63.266,1.671-86.66,1.937
						c-23.395-0.266-63.274-0.926-86.66-1.937c-34.972-1.512-82.116-6.271-103.171-10.292l4.594,9.747
						c35.071,5.125,65.692,7.881,98.575,8.985c23.387,0.785,63.266,1.178,86.662,1.178c23.396,0,63.275-0.393,86.662-1.178
						c32.883-1.104,63.505-3.861,98.575-8.985l4.594-9.747C543.777,116.817,496.632,121.576,461.66,123.088z"/>
					<path style="opacity:0.5;fill:#272747;" d="M560.237,119.656c-35.07,5.125-65.692,7.881-98.575,8.985
						c-23.387,0.785-63.266,1.178-86.662,1.178c-23.396,0-63.275-0.393-86.662-1.178c-32.884-1.104-63.505-3.861-98.575-8.985
						l-3.103-6.584c-0.505-0.092-1.012-0.184-1.491-0.276l4.594,9.747c35.071,5.125,65.692,7.881,98.575,8.985
						c23.387,0.785,63.266,1.178,86.662,1.178c23.396,0,63.275-0.393,86.662-1.178c32.883-1.104,63.505-3.861,98.575-8.985
						l4.594-9.747c-0.479,0.091-0.986,0.184-1.491,0.276L560.237,119.656z"/>
				</g>
				<g>
					<path style="fill:#6F1C0D;" d="M279.998,170.127c-8.317,0-15.06,0.82-15.06,1.832c0,0.438,1.265,0.839,3.369,1.154
						c-0.003-0.018-0.018-0.036-0.018-0.055c0-1.012,5.242-1.832,11.708-1.832c6.466,0,11.708,0.82,11.708,1.832
						c0,0.018-0.014,0.036-0.018,0.055c2.104-0.315,3.37-0.717,3.37-1.154C295.058,170.947,288.315,170.127,279.998,170.127z"/>
					<g>
						<g>
							
								<linearGradient id="SVGID_00000049903665922763680050000002238428769788663438_" gradientUnits="userSpaceOnUse" x1="375" y1="171.9588" x2="375" y2="144.4867">
								<stop  offset="0.4034" style="stop-color:#FF4E53"/>
								<stop  offset="0.5243" style="stop-color:#F24650"/>
								<stop  offset="0.7491" style="stop-color:#CF2F4A"/>
								<stop  offset="1" style="stop-color:#A11241"/>
							</linearGradient>
							<path style="fill:url(#SVGID_00000049903665922763680050000002238428769788663438_);" d="M375,150.845
								c-50.47,0-117.423-2.119-167.776-6.358c1.551,5.317,3.117,12.697,4.697,18.01c17.673,1.43,35.36,2.593,53.055,3.506v5.957
								c0-1.012,6.742-1.832,15.06-1.832c8.317,0,15.059,0.82,15.06,1.832v-4.668c21.135,0.738,58.762,1.109,79.905,1.112
								c21.143-0.003,58.77-0.374,79.905-1.112v4.668c0.001-1.012,6.743-1.832,15.06-1.832c8.317,0,15.06,0.82,15.06,1.832v-5.957
								c17.695-0.912,35.382-2.075,53.055-3.506c1.58-5.313,3.146-12.693,4.697-18.01C492.423,148.725,425.47,150.845,375,150.845z"
								/>
							
								<linearGradient id="SVGID_00000000927705611252263090000005501740928286920576_" gradientUnits="userSpaceOnUse" x1="265.0197" y1="172.1476" x2="265.0197" y2="171.9588">
								<stop  offset="0.4034" style="stop-color:#FF4E53"/>
								<stop  offset="0.5243" style="stop-color:#F24653"/>
								<stop  offset="0.7491" style="stop-color:#CF2F53"/>
								<stop  offset="1" style="stop-color:#A11253"/>
							</linearGradient>
							<path style="fill:url(#SVGID_00000000927705611252263090000005501740928286920576_);" d="M265.063,172.148
								c-0.053-0.062-0.087-0.125-0.087-0.189v0.189H265.063z"/>
							
								<linearGradient id="SVGID_00000109008145353032275700000009921375183181993629_" gradientUnits="userSpaceOnUse" x1="295.0518" y1="172.1476" x2="295.0518" y2="171.959">
								<stop  offset="0.4034" style="stop-color:#FF4E53"/>
								<stop  offset="0.5243" style="stop-color:#F24653"/>
								<stop  offset="0.7491" style="stop-color:#CF2F53"/>
								<stop  offset="1" style="stop-color:#A11253"/>
							</linearGradient>
							<path style="fill:url(#SVGID_00000109008145353032275700000009921375183181993629_);" d="M295.095,172.148v-0.189
								c0,0.064-0.035,0.126-0.087,0.189H295.095z"/>
						</g>
						<g>
							<path style="opacity:0.6;fill:#D35E67;" d="M211.921,162.497c17.673,1.43,35.36,2.593,53.055,3.506v-3.02
								c-17.995-0.915-35.98-2.088-53.952-3.531C211.325,160.466,211.619,161.482,211.921,162.497z"/>
							<path style="opacity:0.6;fill:#D35E67;" d="M295.095,167.29c21.119,0.738,58.731,1.109,79.858,1.112l0.047-3.055
								c-21.143-0.003-58.77-0.369-79.905-1.097V167.29z"/>
							<path style="opacity:0.6;fill:#D35E67;" d="M485.024,162.982v3.02c17.695-0.912,35.382-2.075,53.055-3.506
								c0.302-1.015,0.596-2.031,0.897-3.046C521.004,160.894,503.018,162.067,485.024,162.982z"/>
							<path style="opacity:0.6;fill:#D35E67;" d="M375.047,168.403c21.127-0.003,58.739-0.375,79.858-1.112v-3.04
								c-21.135,0.728-58.762,1.094-79.905,1.097L375.047,168.403z"/>
						</g>
					</g>
					<path style="fill:#6F1C0D;" d="M469.964,170.127c8.317,0,15.06,0.82,15.06,1.832c0,0.438-1.265,0.839-3.369,1.154
						c0.003-0.018,0.018-0.036,0.018-0.055c0-1.012-5.242-1.832-11.708-1.832c-6.466,0-11.708,0.82-11.708,1.832
						c0,0.018,0.014,0.036,0.018,0.055c-2.104-0.315-3.37-0.717-3.37-1.154C454.905,170.947,461.647,170.127,469.964,170.127z"/>
				</g>
			</g>
			<g>
				<g>
					
						<linearGradient id="SVGID_00000093860747092747631710000017167325658963722920_" gradientUnits="userSpaceOnUse" x1="-720.2861" y1="51.8221" x2="-720.2861" y2="43.9539" gradientTransform="matrix(0.9549 0.297 -0.297 0.9549 1019.4428 383.4996)">
						<stop  offset="0" style="stop-color:#FFBA78"/>
						<stop  offset="1" style="stop-color:#FFA878"/>
					</linearGradient>
					<path style="fill:url(#SVGID_00000093860747092747631710000017167325658963722920_);" d="M319.421,211.806l-0.834-0.259
						l-0.834-0.259c-2.677,2.359-4.374,5.099-4.21,5.636c0.16,0.523,0.712,1,1.124,1.32c0.834,0.645,1.904,1.02,2.958,1.048
						c0.627,0.016,1.545-0.042,2.066-0.455C320.132,218.486,320.288,215.266,319.421,211.806z"/>
					<path style="fill:#FFBA78;" d="M320.275,211.511c-0.263,0.844-1.16,1.316-2.004,1.053s-1.316-1.16-1.053-2.005
						c0.263-0.844,1.16-1.316,2.004-1.053C320.066,209.769,320.538,210.666,320.275,211.511z"/>
				</g>
				<g>
					
						<linearGradient id="SVGID_00000021119880104570887850000008544092246003888795_" gradientUnits="userSpaceOnUse" x1="-283.907" y1="81.6535" x2="-283.907" y2="73.7851" gradientTransform="matrix(0.983 0.1836 -0.1836 0.983 637.7565 200.0848)">
						<stop  offset="0" style="stop-color:#FFBA78"/>
						<stop  offset="1" style="stop-color:#FFA878"/>
					</linearGradient>
					<path style="fill:url(#SVGID_00000021119880104570887850000008544092246003888795_);" d="M345.987,220.65l-0.858-0.16
						l-0.858-0.16c-2.384,2.655-3.749,5.574-3.523,6.089c0.22,0.501,0.824,0.91,1.271,1.179c0.903,0.543,2.01,0.791,3.06,0.695
						c0.624-0.057,1.53-0.222,1.998-0.693C347.472,227.202,347.252,223.987,345.987,220.65z"/>
					<path style="fill:#FFBA78;" d="M346.801,220.258c-0.162,0.869-0.999,1.442-1.868,1.28c-0.869-0.162-1.442-0.999-1.28-1.868
						c0.162-0.869,0.998-1.442,1.868-1.28C346.39,218.552,346.963,219.389,346.801,220.258z"/>
				</g>
				<g>
					
						<linearGradient id="SVGID_00000013883378817042594040000014983063340320270239_" gradientUnits="userSpaceOnUse" x1="200.2104" y1="169.7441" x2="200.2104" y2="161.8755" gradientTransform="matrix(0.9986 0.0524 -0.0524 0.9986 183.881 51.7588)">
						<stop  offset="0" style="stop-color:#FFBA78"/>
						<stop  offset="1" style="stop-color:#FFA878"/>
					</linearGradient>
					<path style="fill:url(#SVGID_00000013883378817042594040000014983063340320270239_);" d="M376.201,223.945l-0.872-0.046
						l-0.872-0.046c-2.013,2.946-2.982,6.02-2.69,6.5c0.284,0.467,0.936,0.794,1.415,1.002c0.967,0.419,2.097,0.519,3.125,0.286
						c0.611-0.139,1.487-0.422,1.89-0.95C378.537,230.243,377.895,227.085,376.201,223.945z"/>
					<path style="fill:#FFBA78;" d="M376.956,223.448c-0.046,0.883-0.8,1.561-1.683,1.515c-0.883-0.046-1.561-0.8-1.515-1.683
						s0.8-1.561,1.683-1.515C376.324,221.812,377.002,222.565,376.956,223.448z"/>
				</g>
				<g>
					
						<linearGradient id="SVGID_00000091016013685601361430000000244702920165389696_" gradientUnits="userSpaceOnUse" x1="-2779.6721" y1="693.037" x2="-2779.6721" y2="685.1688" gradientTransform="matrix(-0.9549 0.297 0.297 0.9549 -2426.4639 383.4996)">
						<stop  offset="0" style="stop-color:#FFBA78"/>
						<stop  offset="1" style="stop-color:#FFA878"/>
					</linearGradient>
					<path style="fill:url(#SVGID_00000091016013685601361430000000244702920165389696_);" d="M430.506,212.464l0.834-0.259
						l0.834-0.259c2.677,2.359,4.374,5.099,4.21,5.636c-0.16,0.523-0.712,1-1.124,1.319c-0.834,0.645-1.904,1.02-2.958,1.048
						c-0.626,0.016-1.545-0.042-2.066-0.455C429.796,219.145,429.639,215.925,430.506,212.464z"/>
					<path style="fill:#FFBA78;" d="M429.652,212.169c0.263,0.844,1.16,1.316,2.004,1.053c0.844-0.263,1.316-1.16,1.053-2.004
						c-0.263-0.844-1.16-1.316-2.004-1.053C429.861,210.427,429.39,211.325,429.652,212.169z"/>
				</g>
				<g>
					
						<linearGradient id="SVGID_00000047052427427934852300000009676344392358061696_" gradientUnits="userSpaceOnUse" x1="-2404.0708" y1="478.3173" x2="-2404.0708" y2="470.4489" gradientTransform="matrix(-0.983 0.1836 0.1836 0.983 -2044.7775 200.0848)">
						<stop  offset="0" style="stop-color:#FFBA78"/>
						<stop  offset="1" style="stop-color:#FFA878"/>
					</linearGradient>
					<path style="fill:url(#SVGID_00000047052427427934852300000009676344392358061696_);" d="M403.94,221.309l0.859-0.16
						l0.858-0.16c2.384,2.655,3.749,5.574,3.523,6.089c-0.22,0.501-0.824,0.91-1.271,1.179c-0.903,0.543-2.01,0.791-3.06,0.695
						c-0.624-0.057-1.53-0.222-1.998-0.693C402.455,227.861,402.675,224.645,403.94,221.309z"/>
					<path style="fill:#FFBA78;" d="M403.127,220.916c0.162,0.869,0.999,1.442,1.868,1.28c0.869-0.162,1.442-0.998,1.28-1.868
						c-0.162-0.869-0.999-1.442-1.868-1.28C403.537,219.211,402.964,220.047,403.127,220.916z"/>
				</g>
				
					<path style="fill:none;stroke:#FFBA78;stroke-width:1.0681;stroke-linecap:round;stroke-linejoin:round;stroke-miterlimit:10;" d="
					M266.532,181.635c0,0,8.679,1.44,13.666-3.41c22.09,28.049,56.33,46.081,94.803,46.081s72.713-18.032,94.803-46.081
					c0,0,5.449,4.545,12.906,3.515"/>
				
					<path style="fill:none;stroke:#FFBA78;stroke-width:1.0681;stroke-linecap:round;stroke-linejoin:round;stroke-miterlimit:10;" d="
					M280.197,178.224c0,0,3.964,3.821,13.204,2.994"/>
				
					<path style="fill:none;stroke:#FFBA78;stroke-width:1.0681;stroke-linecap:round;stroke-linejoin:round;stroke-miterlimit:10;" d="
					M469.803,178.224c0,0-3.964,3.821-13.204,2.994"/>
			</g>
		</g>
		<g style="clip-path:url(#SVGID_00000121269782661179465930000007073368390097040808_);">
			<rect x="611.916" y="246.575" style="fill:#272747;" width="2.088" height="14.302"/>
			<g>
				
					<linearGradient id="SVGID_00000127723695469163848570000012536419411697641383_" gradientUnits="userSpaceOnUse" x1="-1791.7799" y1="-4115.5044" x2="-1791.7799" y2="-4127.0835" gradientTransform="matrix(0.7577 0.6526 -0.2723 0.3162 877.2675 2736.8706)">
					<stop  offset="0" style="stop-color:#FB9898"/>
					<stop  offset="1" style="stop-color:#FBAF98"/>
				</linearGradient>
				<polygon style="fill:url(#SVGID_00000127723695469163848570000012536419411697641383_);" points="663.931,286.595 
					616.645,245.869 619.797,242.209 667.084,282.935 				"/>
				
					<linearGradient id="SVGID_00000144327559789958068970000003132951850836141440_" gradientUnits="userSpaceOnUse" x1="664.1726" y1="469.9981" x2="664.1726" y2="234.9975">
					<stop  offset="0" style="stop-color:#E38776"/>
					<stop  offset="1" style="stop-color:#FB9898"/>
				</linearGradient>
				
					<rect x="660.278" y="234.997" style="fill:url(#SVGID_00000144327559789958068970000003132951850836141440_);" width="7.789" height="235.001"/>
				
					<linearGradient id="SVGID_00000132779515736318353140000007719430779044586373_" gradientUnits="userSpaceOnUse" x1="636.8638" y1="246.5746" x2="636.8638" y2="234.9975">
					<stop  offset="0" style="stop-color:#FB9898"/>
					<stop  offset="1" style="stop-color:#FBAF98"/>
				</linearGradient>
				
					<rect x="605.66" y="234.997" style="fill:url(#SVGID_00000132779515736318353140000007719430779044586373_);" width="62.407" height="11.577"/>
			</g>
			<g>
				
					<linearGradient id="SVGID_00000026842475609240410510000008926118634399612324_" gradientUnits="userSpaceOnUse" x1="591.4058" y1="274.3163" x2="634.5148" y2="317.4253">
					<stop  offset="0" style="stop-color:#FF977C"/>
					<stop  offset="0.1004" style="stop-color:#FF8A75"/>
					<stop  offset="0.2862" style="stop-color:#FF6761"/>
					<stop  offset="0.4034" style="stop-color:#FF4E53"/>
					<stop  offset="0.5243" style="stop-color:#F24650"/>
					<stop  offset="0.7491" style="stop-color:#CF2F4A"/>
					<stop  offset="1" style="stop-color:#A11241"/>
				</linearGradient>
				<path style="fill:url(#SVGID_00000026842475609240410510000008926118634399612324_);" d="M619.022,327.471h-12.124
					c-7.262,0-13.149-5.887-13.149-13.149V277.42c0-7.262,5.887-13.149,13.149-13.149h12.124c7.262,0,13.149,5.887,13.149,13.149
					v36.902C632.172,321.584,626.285,327.471,619.022,327.471z"/>
				<rect x="605.988" y="259.401" style="fill:#272747;" width="13.944" height="4.819"/>
				<rect x="605.988" y="327.471" style="fill:#272747;" width="13.944" height="4.819"/>
				<path style="opacity:0.6;fill:#D35E67;" d="M604.1,327.427h2.205c-3.906-1.65-6.66-5.502-6.66-10.002v-43.108
					c0-4.296,2.51-8.005,6.135-9.768h-2.036c-3.09,2.152-5.121,5.725-5.121,9.768v43.108
					C598.624,321.62,600.812,325.307,604.1,327.427z"/>
				<path style="opacity:0.6;fill:#D35E67;" d="M626.275,274.317v43.108c0,4.501-2.754,8.353-6.66,10.002h2.205
					c3.289-2.12,5.476-5.807,5.476-10.002v-43.108c0-4.042-2.03-7.616-5.121-9.768h-2.036
					C623.766,266.312,626.275,270.02,626.275,274.317z"/>
				<path style="opacity:0.6;fill:#D35E67;" d="M619.301,274.317v43.108c0,4.489-1.625,8.344-3.935,10.002h1.508
					c2.071-2.118,3.449-5.804,3.449-10.002v-43.108c0-4.056-1.294-7.62-3.249-9.768h-1.403
					C617.818,266.317,619.301,270.028,619.301,274.317z"/>
				<polygon style="opacity:0.6;fill:#D35E67;" points="613.587,327.427 613.363,264.549 612.341,264.549 612.565,327.427 				"/>
				<path style="opacity:0.6;fill:#D35E67;" d="M605.598,317.425c0,4.198,1.378,7.884,3.45,10.002h1.522
					c-2.317-1.652-3.95-5.505-3.95-10.002v-43.108c0-4.293,1.488-8,3.638-9.768h-1.41c-1.955,2.148-3.249,5.712-3.249,9.768V317.425
					z"/>
			</g>
			<polygon style="fill:#272747;" points="614.332,246.575 612.113,246.575 616.289,234.997 618.508,234.997 			"/>
			<polygon style="fill:#272747;" points="611.588,246.575 613.808,246.575 609.632,234.997 607.412,234.997 			"/>
		</g>
		
			<linearGradient id="SVGID_00000029731425868432521200000016736360018470420667_" gradientUnits="userSpaceOnUse" x1="-2884.7393" y1="1156.213" x2="-3000.6008" y2="926.3687" gradientTransform="matrix(-0.893 0.4501 0.4501 0.893 -2402.804 878.8275)">
			<stop  offset="0" style="stop-color:#1C7EB6"/>
			<stop  offset="1" style="stop-color:#44408D"/>
		</linearGradient>
		
			<path style="clip-path:url(#SVGID_00000121269782661179465930000007073368390097040808_);fill:url(#SVGID_00000029731425868432521200000016736360018470420667_);" d="
			M904.368,404.094c-6.868-11.074-19.107-15.913-27.338-10.809c-3.658,2.269-5.9,6.124-6.668,10.676
			c-5.636-8.273-13.537-12.88-20.956-11.142c-10.036,2.351-15.718,15.477-13.847,30.472c-5.394-2.431-10.939-3.134-15.532-2.305
			c2.213-2.276,3.241-4.781,2.558-6.984c-1.188-3.832-7.16-5.487-14.064-4.224c3.214-6.479,3.197-13.188-0.684-17.173
			c-4.612-4.736-13.208-4.12-20.816,0.924c0.001-0.96-0.026-1.929-0.115-2.913c-1.171-12.978-9.94-22.793-19.586-21.923
			c-4.287,0.387-8.02,2.827-10.748,6.551c-1.327-9.921-6.322-17.583-13.732-19.357c-10.024-2.4-20.99,6.783-26.044,21.024
			c-7.373-9.074-18.308-12.409-24.48-7.439c-6.195,4.99-5.24,16.457,2.133,25.612c0.521,0.647,1.064,1.257,1.618,1.845
			c-3.591-0.219-7.048,0.551-10.039,2.447c-1.936,1.227-3.514,2.843-4.76,4.727c-2.647-8.293-8.581-13.923-14.938-13.349
			c-6.805,0.614-11.858,8.137-12.483,17.664c-0.758-0.495-1.538-0.972-2.358-1.413c-11.479-6.168-24.5-4.252-29.084,4.279
			c-2.037,3.792-2.056,8.252-0.45,12.579c-9.013-4.355-18.159-4.404-23.72,0.805c-7.523,7.047-5.894,21.257,3.211,33.317
			c-11.634,1.159-20.439,8.451-19.688,16.339c0.754,7.919,10.852,13.435,22.555,12.321c0.827-0.079,1.635-0.196,2.432-0.335
			c-2.16,2.877-3.421,6.187-3.485,9.728c-0.042,2.292,0.439,4.499,1.326,6.576c-6.463-1.818-12.676-1.131-16.568,1.86
			c0.883-8.91-0.926-15.837-4.987-16.983c-5.211-1.47-12.228,7.115-16.08,19.4c-1.967-11.763-10.237-20.333-19.276-19.517
			c-4.015,0.362-7.536,2.538-10.21,5.868c-0.035-0.29-0.054-0.576-0.094-0.868c-2.23-16.156-11.504-28.222-20.712-26.95
			c-9.209,1.272-14.866,15.399-12.636,31.554c0.04,0.29,0.099,0.568,0.143,0.856c-9.275-4.758-18.811-4.948-24.541,0.42
			c-8.354,7.825,0,114.64,0,114.64h431.83L904.368,404.094z"/>
	</g>
</g>
</svg>
